<?xml version="1.0" encoding="utf-8"?>
<!-- Generator: Adobe Illustrator 27.5.0, SVG Export Plug-In . SVG Version: 6.00 Build 0)  -->
<svg version="1.1" id="Layer_1" xmlns="http://www.w3.org/2000/svg" xmlns:xlink="http://www.w3.org/1999/xlink" x="0px" y="0px"
	 viewBox="0 0 3000 2000" style="enable-background:new 0 0 3000 2000;" xml:space="preserve">
<g>
	<path style="fill:#02123D;" d="M339.663,391.735c6.033-14.193,14.377-27.879,23.133-40.549
		c45.346-65.611,103.588-91.896,179.966-105.709c-51.221,40.385-76.822,80.986-95.771,142.996c0.273,0.129,0.541,0.266,0.816,0.389
		c12.156,5.42,29.99,5.941,43.777,11.467c52.678,21.111,96.928,68.924,117.884,121.045c11.221,27.908,14.373,56.552,15.103,86.381
		c70.338-38.586,146.084-45.512,223-23.172c83.429,24.228,153.683,84.886,195.046,160.609c2.019,3.647,3.923,7.354,5.711,11.121
		c70.9-86.388,160.398-144.769,273.673-155.939c93.578-9.227,186.591,24.719,258.296,84.189c1.546,1.289,3.037,2.639,4.475,4.049
		c53.849-65.355,112.021-111.107,199.226-119.355c68.754-6.504,129.871,15.752,182.421,59.484
		c4.115,3.415,8.197,6.874,12.246,10.375c39.941-26.408,83.418-39.068,131.289-29.293c43.223,8.828,76.406,33.363,100.469,69.879
		c3.184,4.846,11.27,16.596,11.348,22.098c3.965-0.4,6.68-0.645,10.039-2.883c23.496-3.115,46.094-3.508,69.766-2.826
		c4.844-5.918,11.133-37.986,15.957-48.881c29.981-67.693,90.957-120.504,159.707-146.914
		c73.203-28.133,157.304-24.266,228.476,7.633c30.059,13.473,100.332,58.842,111.934,89.336
		c10.742-6.42,25.605-27.683,35.019-37.437c29.551-30.613,65-57.199,105.332-71.568c13.184-4.693,26.816-7.646,40.098-11.945
		c1.172,2.695,1.68,4.986,1.777,7.9c1.484,44.605,1.758,457.354-1.387,465.333l-0.605,1.504c1.25,2.588,1.816,4.682,1.973,7.551
		c1.523,29.105,0.176,58.941,0.176,88.138v172.06l-0.039,531.8c0,27.396,2.09,238.458-1.035,246.661
		c-0.449,1.191-0.801,1.602-1.523,2.734H0v-963.216v-137.06V625.411V464.513c21.764-9.484,42.513-17.617,66.287-20.42
		c52.461-6.188,103.397,12.408,144.215,44.687C242.929,439.184,285.435,412.757,339.663,391.735z"/>
	
		<linearGradient id="SVGID_1_" gradientUnits="userSpaceOnUse" x1="571.4972" y1="1319.3374" x2="569.4697" y2="1574.9335" gradientTransform="matrix(1.9531 0 0 -1.9531 -1.0869 3909.3369)">
		<stop  offset="0" style="stop-color:#058ADA"/>
		<stop  offset="1" style="stop-color:#83C1F3"/>
	</linearGradient>
	<path style="fill:url(#SVGID_1_);" d="M339.663,391.735c6.033-14.193,14.377-27.879,23.133-40.549
		c45.346-65.611,103.588-91.896,179.966-105.709c-51.221,40.385-76.822,80.986-95.771,142.996c0.273,0.129,0.541,0.266,0.816,0.389
		c12.156,5.42,29.99,5.941,43.777,11.467c52.678,21.111,96.928,68.924,117.884,121.045c11.221,27.908,14.373,56.552,15.103,86.381
		c70.338-38.586,146.084-45.512,223-23.172c83.429,24.228,153.683,84.886,195.046,160.609c2.019,3.647,3.923,7.354,5.711,11.121
		c70.9-86.388,160.398-144.769,273.673-155.939c93.578-9.227,186.591,24.719,258.296,84.189c1.546,1.289,3.037,2.639,4.475,4.049
		c53.849-65.355,112.021-111.107,199.226-119.355c68.754-6.504,129.871,15.752,182.421,59.484
		c4.115,3.415,8.197,6.874,12.246,10.375c39.941-26.408,83.418-39.068,131.289-29.293c43.223,8.828,76.406,33.363,100.469,69.879
		c3.184,4.846,11.27,16.596,11.348,22.098c-0.469,0.385-0.938,0.777-1.426,1.152c-9.043,7.1-23.574,10.457-33.867,16.529
		c-41.523,24.502-73.613,57.42-97.07,99.508c-6.895,12.4-20.078,50.477-26.484,57.221c-0.879-20.246-39.551-67.142-55.195-81.525
		c-55.93-51.398-141.344-83.638-217.439-80.258c-16.933,0.752-37.818,1.74-53.83,7.016c-12.895-16.598-24.512-34.664-36.949-51.674
		c-0.102,0.275-0.211,0.549-0.307,0.826c-10.094,29.139-2.531,76.92-15.471,105.66c-8.605,19.113-29.879,43.266-42.619,60.574
		c-16.689,22.672-53.562,63.394-65.33,84.822c-8.408,15.307-15.326,122.025-17.518,146.851c-0.832,9.418-0.408,31.266-5.857,38.457
		c-2.441,3.221-6.77,5.336-10.307,7.096c-17.787,8.854-38.889,15.537-54.781,27.449c-18.578,13.93-35.16,36.141-52.437,52.34
		c-26.543,24.889-57.527,44.662-87.906,64.453c-5.912,3.852-19.23,15-25.412,15.892c-1.869,1.775-3.949,4.199-6.092,5.57
		c2.826,6.82,5.252,18.252,9.633,23.711c6.594,5.85,24.961,6.682,33.736,6.363l0.969-3.334l1.242,0.564
		c4.09,1.959,4.428,4.783,6.174,8.752c2.773-0.016,5.43,0.025,8.154-0.531c1.424-0.291,43.269-0.322,47.109-0.154
		c2.123,0.094,3.799,0.963,5.559,2.074c1.719-6.006,3.543-11.99,4.854-18.099c3.043,8.476,5.1,17.049,7.154,25.799
		c4.256,13.104,6.613,29.021,12.553,41.188c5.35,19.553,11.592,39.484,15.764,59.306c-130.095-12.008-288.734-4.498-415.477,29.475
		c-17.729,4.752-38.332,9.029-54.49,17.914c-10.15-4.172-23.768-5.637-34.598-7.699c-59.949-11.408-122.384-19.853-183.398-22.066
		c-16.182-0.586-58.258,2.826-70.314-1.332l0.703-5.01l-0.936-0.93l-4.363,1.422c-1.539-5.646,2.258-12.191,1.957-18.439
		l-1.42-0.695l-2.813,4.279c0.943-24.348-4.434-36.617-10.527-59.48c-6.885,19.187-13.691,38.26-19.277,57.879
		c-1.773-1.633-2.889-3.439-4.152-5.459c-1.568,4.992-0.43,10.904-0.029,16.07l-0.652-1.625c-0.316,3.314-0.037,11.055-2.254,13.217
		l-5.738-2.385c-11.264-1.072-28.344,5.117-37.67-1.777c-2.668-0.283-4.461-1.043-6.881-2.111l-0.053-1.92
		c2.064-1.885,3.484-3.844,5.039-6.135l-0.768-2.914c-1.539,0.51-2.953,1.045-4.424,1.74c-0.455,0.215-0.902,0.442-1.355,0.664
		c-0.244-0.586-0.563-1.146-0.731-1.758c-0.928-3.361,1.232-6.203,2.887-8.918c1.049-1.721,0.771-2.305,0.768-4.273
		c-2.359,0.385-3.652,0.768-5.9-0.291c-2.375-9.041,1.473-18.957,0.063-28.332c-1.924,0.156-1.387,0.057-2.947,0.346
		c-0.305,0.057-0.607,0.121-0.912,0.18c-5.352-13.98-1.494-31.855-7.482-45.629c-4.09,8.223-8.756,16.5-11.953,25.107
		c-2.73-17.859-21.402-61.146-32.461-75.388l-1.822-5.299c-11.174,5.811-22.367,11.096-33.984,15.963
		c-2.6,0.535-4.049,0.809-6.695,0.15c-1.713-3.574-2.006-6.352-2.172-10.24l-0.051-1.449l-1.437-0.818l-1.674,3.629l-0.4,2.191
		c-3.74-4.762-11.125-49.015-13.15-58.857c-0.85-3.486-1.457-7.248-2.973-10.502l-1.516,0.611
		c-2.215,19.623-2.688,51.193-12.336,68.789l-3.293-0.262c-3.49,5.756-0.021,19.4,0.982,25.896
		c-1.555,0.072-3.014,0.043-4.563-0.088c-3.855,4.16-4.738,9.531-7.438,14.377c-1.311,2.354-1.359,4.74-1.563,7.371
		c-3.244-4.664-6.342-10.713-8.09-16.121c-5.982-18.254-15.156-36.314-22.576-54.078l-0.271-1.914
		c-3.025-2.701-3.475-2.121-7.371-1.957c-11.801-6.717-28.525-18.172-35.404-30.318c-2.17-3.832-4.912-6.691-7.914-9.875
		c7.465,1.93,18.541,6.15,26.127,4.117l0.91-1.918l-4.088-4.918c-11.799-4.137-25.432-29.969-32.131-41.101
		c5.121,3.558,11.328,8.805,17.17,10.982c3.166,1.182,5.434,1.1,8.418-0.151c-13.424-11.109-20.594-24.736-29.123-39.627
		c6.074,3.744,12.684,6.766,19.068,9.951c-5.738-11.357-12.422-22.002-17.623-33.697c-10.893-24.482-17.568-50.818-24.768-76.562
		c-5.246,15.707-8.609,32.113-13.744,47.92c-6.895,21.215-16.449,41.07-25.99,61.182c6.779-3.48,13.26-7.604,19.789-11.531
		c-3,4.877-5.988,10.178-9.596,14.623c-5.545,6.832-14.018,12.099-17.594,20.262l1.174,2.076c6.09,1.027,11.768-1.963,17.387-4.096
		c-1.084,20.039-31.232,28.447-35.642,39.875l4.09,1.641c-0.279,3.656,0.147,6.176-3.271,8.483
		c-0.916,0.617-1.354,0.707-2.312,1.033c-22.816-10.297-32.955-19.617-43.898-42.111c9.615,4.219,18.684,5.764,29.107,6.689
		c-16.652-14.59-26.584-26.912-36.133-46.918c8.977,4.672,17.715,8.551,27.226,12.029c-12.117-13.726-21.59-26.609-29.76-43.049
		c5.707,5.311,11.82,10.149,17.869,15.059c-17.387-34.754-28.727-70.732-37.578-108.48c-6.683,22.984-13.551,45.449-23.408,67.322
		c-17.693-14.697-31.092-28.303-38.881-50.32c8.595,5.146,16.541,9.31,25.838,13.074c-9.061-19.98-25.496-37.611-36.69-56.768
		c6.269,5.151,12.201,10.77,19.818,13.824l1.417-0.986c-2.975-11.767-19.307-30.685-25.104-49.043
		c7.612,7.01,14.499,15.031,21.563,22.598c-12.864-27.838-23.19-56.853-32.61-86.015c-4.848-15.01-8.176-33.85-15.472-47.578
		c0.072-1.484,1.082-3.021,1.711-4.336l-1.97-2.48C62.509,858.49,32.532,875.931,0,899.718V625.411V464.513
		c21.764-9.484,42.513-17.617,66.287-20.42c52.461-6.188,103.397,12.408,144.215,44.687
		C242.929,439.184,285.435,412.757,339.663,391.735z"/>
	
		<linearGradient id="SVGID_00000098907427423826379020000009780953518869029283_" gradientUnits="userSpaceOnUse" x1="652.4542" y1="1794.2351" x2="648.3149" y2="1520.394" gradientTransform="matrix(1.9531 0 0 -1.9531 -1.0869 3909.3369)">
		<stop  offset="0" style="stop-color:#3950AB"/>
		<stop  offset="1" style="stop-color:#396EC9"/>
	</linearGradient>
	<path style="fill:url(#SVGID_00000098907427423826379020000009780953518869029283_);" d="M339.663,391.735
		c6.033-14.193,14.377-27.879,23.133-40.549c45.346-65.611,103.588-91.896,179.966-105.709
		c-51.221,40.385-76.822,80.986-95.771,142.996c0.273,0.129,0.541,0.266,0.816,0.389c12.156,5.42,29.99,5.941,43.777,11.467
		c52.678,21.111,96.928,68.924,117.884,121.045c11.221,27.908,14.373,56.552,15.103,86.381c70.338-38.586,146.084-45.512,223-23.172
		c83.429,24.228,153.683,84.886,195.046,160.609c2.019,3.647,3.923,7.354,5.711,11.121c70.9-86.388,160.398-144.769,273.673-155.939
		c93.578-9.227,186.591,24.719,258.296,84.189c1.546,1.289,3.037,2.639,4.475,4.049c53.849-65.355,112.021-111.107,199.226-119.355
		c68.754-6.504,129.871,15.752,182.421,59.484c4.115,3.415,8.197,6.874,12.246,10.375c39.941-26.408,83.418-39.068,131.289-29.293
		c43.223,8.828,76.406,33.363,100.469,69.879c3.184,4.846,11.27,16.596,11.348,22.098c-0.469,0.385-0.938,0.777-1.426,1.152
		c-9.043,7.1-23.574,10.457-33.867,16.529c-41.523,24.502-73.613,57.42-97.07,99.508c-6.895,12.4-20.078,50.477-26.484,57.221
		c-0.879-20.246-39.551-67.142-55.195-81.525c-55.93-51.398-141.344-83.638-217.439-80.258c-16.933,0.752-37.818,1.74-53.83,7.016
		c-12.895-16.598-24.512-34.664-36.949-51.674l-1.834-2.109c-7.48,6.238-13.719,19.164-19.17,27.506
		c-15.973,24.445-39.871,64.412-61.51,83.084c-13.131,16.146-30.576,41.969-45.395,54.98
		c-13.609,11.949-64.953,34.613-84.795,45.611c-29.875,64.277-58.793,128.982-86.754,194.115l-15.527,6.072
		c-9.031-8.068-24.504-14.221-35.564-19.408c-65.939-30.92-119.941-36.592-191.568-33.76c-0.27-40.066-18.064-94.656-45.092-124.939
		l0.066-0.961c-7.301-10.01-15.02-19.451-23.521-28.457c-45.023-47.693-110.884-78.973-176.775-80.73
		c-68.746-1.834-141.05,20.697-191.572,68.697c-12.379-41.633-42.332-73.031-75.785-99.043c-5.279,1.28-10.594,2.383-15.947,3.311
		c-5.353,0.927-10.73,1.675-16.133,2.244c-5.402,0.569-10.818,0.958-16.246,1.166s-10.857,0.236-16.287,0.084
		c-76.859-2.838-146.39-40.986-197.843-96.506c-16.336-20.992-30.84-42.478-41.83-66.793
		C309.552,535.622,313.831,460.534,339.663,391.735z"/>
	<path style="fill:#FEFEFE;" d="M339.663,391.735c6.033-14.193,14.377-27.879,23.133-40.549
		c45.346-65.611,103.588-91.896,179.966-105.709c-51.221,40.385-76.822,80.986-95.771,142.996
		c-11.295,69.824-3.652,134.863,38.408,193.464c38.91,54.213,102.998,90.488,168.41,101.222
		c44.033,7.225,84.123,1.422,127.326-7.627c-34.992,40.043-84.994,71.299-136.418,84.892c-5.279,1.28-10.594,2.383-15.947,3.311
		c-5.353,0.927-10.73,1.675-16.133,2.244c-5.402,0.569-10.818,0.958-16.246,1.166s-10.857,0.236-16.287,0.084
		c-76.859-2.838-146.39-40.986-197.843-96.506c-16.336-20.992-30.84-42.478-41.83-66.793
		C309.552,535.622,313.831,460.534,339.663,391.735z"/>
	<path style="fill:#3D8FDD;" d="M1417.698,948.386c1.656-4.405,3.364-8.79,5.123-13.156
		c27.766-69.011,83.441-116.281,150.666-144.902c9.791-4.168,33.668-16.043,43.512-12.08c-13.131,16.146-30.576,41.969-45.395,54.98
		c-13.609,11.949-64.953,34.613-84.795,45.611c-29.875,64.277-58.793,128.982-86.754,194.115l-15.527,6.072
		c-9.031-8.068-24.504-14.221-35.564-19.408c-65.939-30.92-119.941-36.592-191.568-33.76c-0.27-40.066-18.064-94.656-45.092-124.939
		l0.066-0.961c34.297-20.389,78.355-31.715,118.142-32.105C1299.627,867.172,1368.932,900.705,1417.698,948.386z"/>
	
		<linearGradient id="SVGID_00000119810856412763927020000012702591670747995788_" gradientUnits="userSpaceOnUse" x1="284.1852" y1="1682.0688" x2="286.0383" y2="1452.9048" gradientTransform="matrix(1.9531 0 0 -1.9531 -1.0869 3909.3369)">
		<stop  offset="0" style="stop-color:#4A79D2"/>
		<stop  offset="1" style="stop-color:#3B94E7"/>
	</linearGradient>
	<path style="fill:url(#SVGID_00000119810856412763927020000012702591670747995788_);" d="M210.501,488.78
		c32.428-49.596,74.933-76.023,129.162-97.045c-25.832,68.799-30.111,143.886,0.768,212.197
		c10.99,24.314,25.494,45.801,41.83,66.793c51.453,55.52,120.984,93.668,197.843,96.506c5.43,0.152,10.859,0.124,16.287-0.084
		s10.844-0.597,16.246-1.166c5.402-0.569,10.78-1.317,16.133-2.244c5.353-0.927,10.669-2.031,15.947-3.311
		c33.453,26.012,63.406,57.41,75.785,99.043c50.521-48,122.826-70.531,191.572-68.697c65.891,1.758,131.752,33.037,176.775,80.73
		c8.502,9.006,16.221,18.447,23.521,28.457l-0.066,0.961c-33.449,18.012-67.238,41.301-90.105,72.238
		c-3.076-3.056-6.24-6.016-9.494-8.881c-3.255-2.865-6.593-5.628-10.014-8.291c-3.422-2.663-6.921-5.219-10.496-7.67
		c-3.576-2.452-7.222-4.793-10.939-7.023c-3.717-2.23-7.499-4.346-11.346-6.348c-3.845-2.003-7.747-3.887-11.705-5.652
		c-3.96-1.766-7.969-3.41-12.027-4.934c-4.059-1.523-8.159-2.923-12.303-4.199c-60.56-19.26-124.621-11.766-180.699,17.445
		c-1.763,0.905-3.514,1.831-5.254,2.779c-1.738,0.949-3.465,1.919-5.182,2.91c-1.715,0.992-3.417,2.005-5.107,3.039
		c-1.69,1.034-3.367,2.089-5.029,3.164c-1.664,1.077-3.314,2.174-4.951,3.291c-1.635,1.117-3.257,2.255-4.865,3.412
		c-1.608,1.158-3.201,2.335-4.779,3.533c-1.578,1.198-3.141,2.415-4.689,3.652c-1.548,1.236-3.08,2.491-4.596,3.766
		c-1.517,1.276-3.018,2.57-4.502,3.883c-1.484,1.311-2.952,2.642-4.402,3.992c-1.452,1.349-2.886,2.716-4.303,4.1
		c-1.417,1.385-2.816,2.788-4.197,4.209c-1.383,1.419-2.747,2.856-4.092,4.31c-1.346,1.453-2.674,2.923-3.984,4.41
		c-1.309,1.488-2.599,2.992-3.871,4.512c-1.271,1.518-2.523,3.053-3.758,4.604c-1.233,1.551-2.447,3.117-3.641,4.699
		c-1.194,1.581-2.369,3.176-3.523,4.787c-1.154,1.609-2.288,3.234-3.402,4.873c-1.113,1.638-2.206,3.29-3.279,4.957
		c-1.073,1.667-2.124,3.346-3.154,5.037c-1.031,1.693-2.04,3.398-3.027,5.115c-0.988,1.717-1.955,3.447-2.9,5.189
		c-0.944,1.741-1.867,3.494-2.768,5.26c-0.901,1.764-1.78,3.54-2.637,5.326c-0.857,1.786-1.691,3.584-2.504,5.393
		c-0.811,1.807-1.6,3.624-2.367,5.451c-0.766,1.828-1.509,3.665-2.23,5.51c-0.72,1.846-1.417,3.701-2.092,5.565
		c-0.674,1.863-1.325,3.734-1.951,5.613c-0.628,1.88-1.232,3.768-1.813,5.662c-0.271-0.646-0.549-1.288-0.836-1.928
		c-18.84-42.023-54.178-70.236-96.427-86.404c-48.328-18.496-96.482-12.307-142.724,8.275
		c-16.816-45.531-54.652-90.683-95.539-116.586c-57.06-36.148-131.396-50.478-197.398-35.592
		C62.509,858.49,32.532,875.931,0,899.718V625.411V464.513c21.764-9.484,42.513-17.617,66.287-20.42
		C118.748,437.905,169.683,456.501,210.501,488.78z"/>
	<path style="fill:#3357B0;" d="M210.501,488.78c32.428-49.596,74.933-76.023,129.162-97.045
		c-25.832,68.799-30.111,143.886,0.768,212.197c10.99,24.314,25.494,45.801,41.83,66.793c-15.248,1.799-33.453-6.393-49.332-6.5
		c-75.588-0.512-143.766,42.066-195.533,93.74C110.548,701.612,59.179,647.598,0,625.411V464.513
		c21.764-9.484,42.513-17.617,66.287-20.42C118.748,437.905,169.683,456.501,210.501,488.78z"/>
	<path style="fill:#0D478C;" d="M1616.998,778.248c21.638-18.672,45.537-58.638,61.51-83.084
		c5.451-8.342,11.689-21.267,19.17-27.506l1.834,2.109c-0.102,0.275-0.211,0.549-0.307,0.826
		c-10.094,29.139-2.531,76.92-15.471,105.66c-8.605,19.113-29.879,43.266-42.619,60.574c-16.689,22.672-53.562,63.394-65.33,84.822
		c-8.408,15.307-15.326,122.025-17.518,146.851c-0.832,9.418-0.408,31.266-5.857,38.457c-2.441,3.221-6.77,5.336-10.307,7.096
		c-17.787,8.854-38.889,15.537-54.781,27.449c-18.578,13.93-35.16,36.141-52.437,52.34c-26.543,24.889-57.527,44.662-87.906,64.453
		c-5.912,3.852-19.23,15-25.412,15.892c-1.869,1.775-3.949,4.199-6.092,5.57c2.826,6.82,5.252,18.252,9.633,23.711
		c6.594,5.85,24.961,6.682,33.736,6.363l0.969-3.334l1.242,0.564c4.09,1.959,4.428,4.783,6.174,8.752
		c2.773-0.016,5.43,0.025,8.154-0.531c1.424-0.291,43.269-0.322,47.109-0.154c2.123,0.094,3.799,0.963,5.559,2.074
		c1.719-6.006,3.543-11.99,4.854-18.099c3.043,8.476,5.1,17.049,7.154,25.799c4.256,13.104,6.613,29.021,12.553,41.188
		c5.35,19.553,11.592,39.484,15.764,59.306c-130.095-12.008-288.734-4.498-415.477,29.475c-17.729,4.752-38.332,9.029-54.49,17.914
		c-10.15-4.172-23.768-5.637-34.598-7.699c-59.949-11.408-122.384-19.853-183.398-22.066c-16.182-0.586-58.258,2.826-70.314-1.332
		l0.703-5.01l-0.936-0.93l-4.363,1.422c-1.539-5.646,2.258-12.191,1.957-18.439l-1.42-0.695l-2.813,4.279
		c0.943-24.348-4.434-36.617-10.527-59.48c-6.885,19.187-13.691,38.26-19.277,57.879c-1.773-1.633-2.889-3.439-4.152-5.459
		c-1.568,4.992-0.43,10.904-0.029,16.07l-0.652-1.625c-0.316,3.314-0.037,11.055-2.254,13.217l-5.738-2.385
		c-11.264-1.072-28.344,5.117-37.67-1.777c-2.668-0.283-4.461-1.043-6.881-2.111l-0.053-1.92c2.064-1.885,3.484-3.844,5.039-6.135
		l-0.768-2.914c-1.539,0.51-2.953,1.045-4.424,1.74c-0.455,0.215-0.902,0.442-1.355,0.664c-0.244-0.586-0.563-1.146-0.731-1.758
		c-0.928-3.361,1.232-6.203,2.887-8.918c1.049-1.721,0.771-2.305,0.768-4.273c-2.359,0.385-3.652,0.768-5.9-0.291
		c-2.375-9.041,1.473-18.957,0.063-28.332c-1.924,0.156-1.387,0.057-2.947,0.346c-0.305,0.057-0.607,0.121-0.912,0.18
		c-5.352-13.98-1.494-31.855-7.482-45.629c-4.09,8.223-8.756,16.5-11.953,25.107c-2.73-17.859-21.402-61.146-32.461-75.388
		l-1.822-5.299c26.486-15.017,57.287-25.578,81.734-43.711c5.197-1.793,10.328-6.301,14.846-9.496
		c5.805,3.043,11.367,4.703,14.82,10.395c4.501,15.756,9.24,31.441,14.217,47.053c1.178-0.352,1.275-0.338,2.561-0.979
		c44.947-22.369,88.34-113.107,112.666-156.322c7.965-14.148,19.416-26.438,26.266-41.228c4.406-9.516,4.375-20.732,8.018-30.555
		c0.102-0.273,0.211-0.545,0.316-0.816c12.492,20.512,31.041,41.258,47.789,58.592c12.644,3.449,25.088,6.453,38.023,8.586
		c9.832,12.398,15.371,27.098,24.316,39.953c10.918,4.033,23.834,6.615,33.625,12.934c9.06,5.844,16.174,15.84,23.477,23.715
		c15.889,17.137,41.26,39.438,62.461,48.516c14.043,5.977,37.795-9.281,52.588-10.793c20.291-2.07,40.463-0.49,60.463,3.18
		c2.09-2.582,4.219-5.13,6.389-7.645c3.68-4.211,10.436-13.223,15.725-13.566c16.236-17.332,82.719-97.367,94.017-103.826
		c14.322-8.183,31.353-12.906,46.855-18.596c16.769-6.154,33.068-12.879,49.365-20.185l15.527-6.072
		c27.961-65.133,56.879-129.838,86.754-194.115c19.842-10.998,71.185-33.662,84.795-45.611
		C1586.422,820.217,1603.867,794.394,1616.998,778.248z"/>
	
		<linearGradient id="SVGID_00000061472289453580534990000018199014541454972307_" gradientUnits="userSpaceOnUse" x1="484.6067" y1="1453.4866" x2="477.1701" y2="1291.251" gradientTransform="matrix(1.9531 0 0 -1.9531 -1.0869 3909.3369)">
		<stop  offset="0" style="stop-color:#05257F"/>
		<stop  offset="1" style="stop-color:#156DC0"/>
	</linearGradient>
	<path style="fill:url(#SVGID_00000061472289453580534990000018199014541454972307_);" d="M829.435,1058.163
		c12.492,20.512,31.041,41.258,47.789,58.592c12.644,3.449,25.088,6.453,38.023,8.586c9.832,12.398,15.371,27.098,24.316,39.953
		c10.918,4.033,23.834,6.615,33.625,12.934c9.06,5.844,16.174,15.84,23.477,23.715c15.889,17.137,41.26,39.438,62.461,48.516
		c14.043,5.977,37.795-9.281,52.588-10.793c20.291-2.07,40.463-0.49,60.463,3.18c2.09-2.582,4.219-5.13,6.389-7.645
		c3.68-4.211,10.436-13.223,15.725-13.566c-1.723,2.363-4.174,5.039-5.475,7.625l1.576,2.809
		c-15.948,40.196-30.782,80.8-44.502,121.81c-7.152-14.455-10.799-30.434-17.973-44.717c-6.627,14.313-11.09,29.592-17.818,43.773
		c-6.23-16.037-12.08-32.377-19.139-48.064l-8.725,24.762c-8.014-18.809-15.767-37.561-22.508-56.877
		c-10.726,30.449-19.258,62.037-31.42,91.902c-6.949-12.215-11.185-25.795-16.66-38.705c-6.859,19.1-13.986,38.1-21.379,57
		c-13.165-31.612-25.458-63.559-36.879-95.842c-5.617-15.574-10.379-32.502-17.316-47.476
		c-11.481,42.217-28.969,97.918-45.682,138.029c-8.43-20.467-15.352-41.672-22.334-62.674c-7.604,18.844-13.592,38.31-21.385,57.061
		c-14.797-42.217-31.324-83.611-46.625-125.605c-13.117,38.445-25.416,77.519-39.617,115.56
		c-7.723-19.583-14.481-39.494-20.275-59.732c-8.395,26.648-16.844,57.23-29.547,82.045c-12.01-31.408-21.211-64.099-31-96.254
		c1.178-0.352,1.275-0.338,2.561-0.979c44.947-22.369,88.34-113.107,112.666-156.322c7.965-14.148,19.416-26.438,26.266-41.228
		c4.406-9.516,4.375-20.732,8.018-30.555C829.221,1058.706,829.33,1058.435,829.435,1058.163z"/>
	<path style="fill:#3D8FDD;" d="M1172.177,1242.844c2.09-2.582,4.219-5.13,6.389-7.645c3.68-4.211,10.436-13.223,15.725-13.566
		c-1.723,2.363-4.174,5.039-5.475,7.625c-20.586,21.004-39.773,43.351-59.769,64.912c-22.971-14.229-48.344-27.603-69.92-43.713
		c14.043,5.977,37.795-9.281,52.588-10.793C1132.005,1237.594,1152.177,1239.175,1172.177,1242.844z"/>
	<path style="fill:#3357B0;" d="M826.162,1082.271c9.506,17.584,9.857,72.238,10.379,93.642c0.631,25.941,0.844,38.734-17.756,58.31
		l-16.051,2.318c-3.963,0.598-7.133,1.24-11.025,0.07c-1.939-8.189,23.48-99.615,27.146-115.404
		C821.755,1108.316,824.191,1095.337,826.162,1082.271z"/>
	<path style="fill:#3357B0;" d="M635.727,1240.112c5.197-1.793,10.328-6.301,14.846-9.496c5.805,3.043,11.367,4.703,14.82,10.395
		c-4.984,10.031-7.486,21.789-10.646,32.555c-7.59,25.865-14.318,53.314-25.121,78.023c-5.326-16.662-9.744-33.541-14.605-50.336
		c-4.326,11.633-7.619,28.127-14.791,38.15c-4.09,8.223-8.756,16.5-11.953,25.107c-2.73-17.859-21.402-61.146-32.461-75.388
		l-1.822-5.299C580.479,1268.805,611.28,1258.245,635.727,1240.112z"/>
	<path style="fill:#0B6CA5;" d="M1367.229,1315.815c2.773-0.016,5.43,0.025,8.154-0.531c1.424-0.291,43.269-0.322,47.109-0.154
		c2.123,0.094,3.799,0.963,5.559,2.074c-11.885,30.732-17.436,64.109-29.144,95.18
		C1389.143,1379.877,1378.379,1347.874,1367.229,1315.815z"/>
	<path style="fill:#3357B0;" d="M1220.598,1313.249c6.121,1.814,16.156,48.789,22.445,56.344l0.324-1.822l-0.602,1.852
		c4.443-5.221,10.795-31.338,13.512-39.926c0.93-2.936,1.934-5.736,3.682-8.309c6.889-10.121,51.728-45.287,61.607-47.199
		c-1.869,1.775-3.949,4.199-6.092,5.57c-2.164,1.457-4.605,3.24-5.844,5.611c-10.838,20.74-16.756,51.219-28.986,73.951
		c-4.035-10.926-8.377-29.058-15.957-37.642l-2.336,0.432c-8.111,14.68-12.631,38.959-19.641,55.992
		C1237.61,1364.037,1221.102,1326.217,1220.598,1313.249z"/>
	<path style="fill:#3357B0;" d="M1325.108,1303.469c6.594,5.85,24.961,6.682,33.736,6.363l0.969-3.334l1.242,0.564
		c-3.185,17.467-9.105,35.978-16.023,52.322C1338.612,1340.665,1331.387,1322.258,1325.108,1303.469z"/>
	<path style="fill:#3357B0;" d="M650.573,1230.616c28.844-24.289,41.502-57.838,65.941-84.549
		c14.51-15.855,32.037-23.578,49.996-34.33c26.328-15.762,47.451-44.246,56.723-73.228c2.307,6.514,4.435,12.975,6.203,19.654
		c-0.105,0.271-0.215,0.543-0.316,0.816c-3.643,9.822-3.611,21.039-8.018,30.555c-6.85,14.791-18.301,27.08-26.266,41.228
		c-24.326,43.215-67.719,133.953-112.666,156.322c-1.285,0.641-1.383,0.627-2.561,0.979c-4.977-15.612-9.715-31.296-14.217-47.053
		C661.94,1235.319,656.377,1233.659,650.573,1230.616z"/>
	<path style="fill:#3D8FDD;" d="M497.399,1233.473c16.244-1.771,33.734,0.422,50.219,0.422c14.779,0.002,30.795-1.971,45.344-0.408
		c15.08,1.619,27.721,11.504,42.766,6.625c-24.447,18.133-55.248,28.693-81.734,43.711c-11.174,5.811-22.367,11.096-33.984,15.963
		c-2.6,0.535-4.049,0.809-6.695,0.15c-1.713-3.574-2.006-6.352-2.172-10.24l-0.051-1.449l-1.437-0.818l-1.674,3.629l-0.4,2.191
		c-3.74-4.762-11.125-49.015-13.15-58.857L497.399,1233.473z"/>
	
		<linearGradient id="SVGID_00000164482114102876836090000005521360512739570570_" gradientUnits="userSpaceOnUse" x1="1212.1121" y1="1752.4076" x2="1217.1564" y2="1445.4919" gradientTransform="matrix(1.9531 0 0 -1.9531 -1.0869 3909.3369)">
		<stop  offset="0" style="stop-color:#486AC2"/>
		<stop  offset="1" style="stop-color:#3B8FE3"/>
	</linearGradient>
	<path style="fill:url(#SVGID_00000164482114102876836090000005521360512739570570_);" d="M2998.098,476.313
		c1.172,2.695,1.68,4.986,1.777,7.9c1.484,44.605,1.758,457.354-1.387,465.333l-0.605,1.504c0.176-9.254-3.106-21.775-8.809-29.057
		c3.574,12.533-17.09,66.064-24.141,78.795c-3.32,5.994-18.516,18.726-18.262,24.019c3.867,1.652,9.648,0.017,13.535-1.453
		c2.91-1.096,5.02-2.492,7.266-4.588c-4.043,16.455-17.148,33.859-31.152,43.264c-3.203,3.008-3.965,3.586-8.223,4.594
		c-5.117-5.633-22.715-22.545-28.672-26.695c8.77,0.34,19.765,1.676,28.203-0.717c3.496-0.988,4.844-1.434,6.563-4.555
		c-8.399-9.527-21.719-15.019-31.289-23.467c-11.211-9.887-19.297-23.127-31.113-32.234c6.758,1.879,13.281,4.617,20.098,6.389
		c7.246,1.885,18.34,5.254,25.058,1.361c-2.344-3.346-5.508-5.414-8.73-7.828c-8.34-6.25-16.855-12.027-23.613-20.066
		c-8.027-9.539-14.473-21.973-24.141-29.82c10.625,4.111,20.488,13.652,32.09,14.881c3.164,0.336,4.609-0.104,6.953-2.115
		c-5.274-10.217-34.043-45.264-43.32-53.215c9.766,3.785,20.156,10.863,28.691,16.982c0.039-0.609,0.097-1.217,0.117-1.828
		c0.117-5.211-15.918-30.633-19.063-36.639c-4.902-9.369-9.59-18.863-13.242-28.807c-5.234-14.299-18.73-68.363-25.937-75.572
		c0.254,3.287,0.156,6.422-0.391,9.678c-5.508,33.086-27.344,105.537-55.097,125.789c5.664-1.439,11.523-2.795,16.875-5.176
		c5.371-2.387,10.39-5.713,12.617-11.377c0.117,1.354,0.274,2.641,0.078,3.996c-1.836,12.791-33.477,48.281-43.965,55.584
		c9.805-1.99,19.238-4.746,28.242-9.213c6.23-3.094,15.664-8.336,17.988-15.229c-0.058,0.408-0.117,0.818-0.195,1.223
		c-5.058,26.113-39.57,50.752-60.156,64.551l0.605,2.004c1.211,0.344,2.051,0.641,3.262,0.809
		c10.684,1.475,29.785-2.291,38.32-9.106c-0.117,1.051-0.117,1.725-0.43,2.697c-6.191,18.918-48.496,41.527-66.953,49.592
		c12.695,2.201,25.84,4.973,38.769,4.236c8.867-0.506,19.141-3.268,25.312-10.021c-0.664,2.283-1.582,4.135-2.851,6.156
		c-7.871,12.576-21.641,18.436-35.645,21.498c-1.484-5.152-6.426-7.863-11.055-10.442c-40.117-22.402-95-18.721-137.636-5.937
		c-25.82,7.734-86.113,35.699-101.796,56.129c-6.289-9.412-42.207-28.115-53.828-38.639c-10.879-9.846-17.383-25.459-29.941-33.219
		c-14.688-9.094-32.168-6.568-46.66-18.574c-20.605-17.09-72.812-77.289-89.59-85.541c-0.488,1.801-0.938,2.846-2.227,4.26
		c-14.121,15.615-33.359,29.525-49.355,43.35c-26.888,23.334-54.141,46.237-81.758,68.709
		c-13.711,11.184-27.793,23.824-42.676,33.322c-3.066,1.949-5.918,2.809-9.551,3.1c-7.676-6.422-23.301-10.869-32.773-14.639
		c0.117-0.791,0.234-1.23,0.039-2.092c-2.598-10.814-28.828-63.281-35.879-69.392c-8.457-3.82-18.887-5.793-27.891-8.418
		c-21.426-6.254-42.826-12.752-64.496-18.146c-21.641-37.047-41.752-75.076-62.375-112.701
		c-21.912-13.195-51.691-27.68-70.396-44.301c-18.072-16.055-41.92-54.557-56.834-75.758c16.012-5.275,36.896-6.264,53.83-7.016
		c76.095-3.381,161.509,28.859,217.439,80.258c15.644,14.383,54.316,61.279,55.195,81.525c6.406-6.744,19.59-44.82,26.484-57.221
		c23.457-42.088,55.547-75.006,97.07-99.508c10.293-6.072,24.824-9.43,33.867-16.529c0.488-0.375,0.957-0.768,1.426-1.152
		c3.965-0.4,6.68-0.645,10.039-2.883c23.496-3.115,46.094-3.508,69.766-2.826c4.844-5.918,11.133-37.986,15.957-48.881
		c29.981-67.693,90.957-120.504,159.707-146.914c73.203-28.133,157.304-24.266,228.476,7.633
		c30.059,13.473,100.332,58.842,111.934,89.336c10.742-6.42,25.605-27.683,35.019-37.437c29.551-30.613,65-57.199,105.332-71.568
		C2971.184,483.565,2984.816,480.612,2998.098,476.313z"/>
	
		<linearGradient id="SVGID_00000161630618907100763970000014498003190291333546_" gradientUnits="userSpaceOnUse" x1="965.8834" y1="1651.9391" x2="940.4716" y2="1253.3259" gradientTransform="matrix(1.9531 0 0 -1.9531 -1.0869 3909.3369)">
		<stop  offset="0" style="stop-color:#07014C"/>
		<stop  offset="1" style="stop-color:#0C69A9"/>
	</linearGradient>
	<path style="fill:url(#SVGID_00000161630618907100763970000014498003190291333546_);" d="M1321.567,1274.188
		c6.182-0.892,19.5-12.041,25.412-15.892c30.379-19.791,61.363-39.564,87.906-64.453c17.277-16.199,33.859-38.41,52.437-52.34
		c15.893-11.912,36.994-18.596,54.781-27.449c3.537-1.76,7.865-3.875,10.307-7.096c5.449-7.191,5.025-29.039,5.857-38.457
		c2.191-24.826,9.109-131.544,17.518-146.851c11.767-21.428,48.64-62.15,65.33-84.822c12.74-17.308,34.014-41.461,42.619-60.574
		c12.939-28.74,5.377-76.521,15.471-105.66c0.096-0.277,0.205-0.551,0.307-0.826c12.438,17.01,24.055,35.076,36.949,51.674
		c14.914,21.201,38.762,59.703,56.834,75.758c18.705,16.621,48.484,31.105,70.396,44.301
		c20.623,37.625,40.734,75.654,62.375,112.701c21.67,5.395,43.07,11.893,64.496,18.146c9.004,2.625,19.433,4.598,27.891,8.418
		c7.051,6.111,33.281,58.578,35.879,69.392c0.196,0.861,0.078,1.301-0.039,2.092c9.473,3.769,25.097,8.217,32.773,14.639
		c17.754,5.307,78.125,35.432,88.105,49.551c8.066,4.309,52.832,32.072,56.738,37.902c47.656,23.033,88.554,62.687,136.64,85.34
		c3.145,0.642,6.172,1.182,9.141,2.498l-7.48,8.594l1.191,0.897l9.668-1.389c-1.934,5.176-13.047,10.123-17.988,12.318
		c-1.172,0.518-2.285,0.867-3.496,1.23c5.377,1.801,10.71,3.719,15.996,5.754l-0.195,0.127c-6.23,5.361-11.914,10.146-19.395,13.664
		c7.539,1.588,14.922,3.225,22.246,5.58c-0.586,5.404-3.691,9.225-7.793,12.578c-3.145,2.574-6.641,4.676-10.625,5.582
		c-0.234-10.424-6.641-35.064-13.613-42.729c0.586,7.609-0.293,13.006-5.234,19.021l-0.039-0.908l-0.742,2.568
		c-0.332,1.117-0.684,2.227-0.977,3.354c-0.254,1.012-0.43,2.047-0.723,3.053c-1.523,5.367-7.871,12.506-12.949,14.816
		c-3.73,1.691-5.352,1.131-8.867-0.203c-6.113-6.299-7.578-17.668-9.766-26.045l-4.395-2.426
		c-1.094-8.498-3.477-13.777-8.984-20.076c4.453,9.83-5.137,33.814-9.16,44.129c-0.859,2.184-1.777,3.41-3.359,5.092l-0.098-0.857
		c-4.668,4.631-1.055,14.449-7.871,20.295c-4.473,1.488-7.949,0.842-12.285-0.834c-10.84-4.195-22.695-9.602-27.461-20.996
		c-0.84-2.02-1.777-3.992-2.676-5.986l-2.637,1.281c-2.656,7.279-5.117,17.877-10.293,23.674c1.015,9.559-5.352,20.115-8.691,28.767
		c-1.875,4.832,3.223,8.291,1.973,9.914c-2.422,3.133-6.973,5.631-10.234,7.906l0.156,1.301c3.809,1.729,5.605,1.668,6.992,5.754
		c0.761,2.271,0.742,4.695,0.801,7.068c-4.414,2.311-8.828,4.57-13.066,7.195c2.227,2.367,4.492,2.969,7.461,3.936
		c1.016,3.068,1.445,3.756-0.039,6.811c-0.352,0.715-0.879,1.289-1.367,1.894c6.387-3.857,7.793-4.891,15.234-4.535
		c-1.133,3.646-3.75,4.93-7.071,6.701c-7.754,4.152-16.094,7.109-23.828,11.379l-0.117,1.41c5.156,0.707,9.316,1.463,14.18,3.451
		c2.246,0.918,4.531,1.248,6.894,1.686c1.68,0.308,0.977,0.078,2.402,0.805c-10.195,7.586-24.472,11.912-36.875,14.045
		c9.648,1.85,22.383,2.904,31.27,6.777c-10.547,7.607-26.328,10.852-39.121,11.584c11.523,4.061,23.131,7.878,34.824,11.449
		c-10.293,4.719-22.109,9.195-33.184,11.635c8.281,4.387,16.699,6.77,25.664,9.271c-13.086,9.795-27.168,10.807-42.891,12.058
		c5.059,1.223,12.91,2.186,17.246,4.832l-0.332,1.248c-5.43,3.019-60.156-5.645-69.804-6.59c-44.199-4.33-88.73-9.1-133.086-11.178
		c-37.855-1.773-76.742-0.445-114.275-5.619c-52.025-7.174-102.527-22.906-154.474-29.924c-15.029-3.906-31.305-5.396-46.681-7.748
		c-18.539-2.324-37.031-5.592-55.496-8.467l-6.221-1.377c-14.898-1.327-29.781-2.81-44.648-4.449l-16.938-2.1
		c-14.422-1.357-30.211-1.131-44.336-4.039l-11.637-0.793c-4.172-19.822-10.414-39.754-15.764-59.306
		c-5.939-12.166-8.297-28.084-12.553-41.188c-2.055-8.75-4.111-17.322-7.154-25.799c-1.311,6.109-3.135,12.094-4.854,18.099
		c-1.76-1.111-3.436-1.98-5.559-2.074c-3.84-0.168-45.685-0.137-47.109,0.154c-2.725,0.557-5.381,0.516-8.154,0.531
		c-1.746-3.969-2.084-6.793-6.174-8.752l-1.242-0.564l-0.969,3.334c-8.775,0.318-27.142-0.514-33.736-6.363
		c-4.381-5.459-6.807-16.891-9.633-23.711C1317.618,1278.387,1319.698,1275.964,1321.567,1274.188z"/>
	<path style="fill:#0D478C;" d="M2058.198,1240.721c0.527,0.594,1.074,1.189,1.582,1.81l0.684,0.85
		c8.77,10.736,15.957,50.184,19.805,65.215c5.742,2.268,36.641,5.154,41.972,3.154c1.778-0.67,2.481-1.183,3.496-2.785l0.234,0.998
		l2.402-0.006l2.637-1.361c2.071,3.727,1.602,9.951,4.414,12.461l1.387,0.059c11.445,0.603,23.281,4.387,34.453,6.994
		c1.035-2.162,1.992-4.201,3.399-6.152c5.254-6.58,16.367-47.271,15.429-55.713c-0.176-1.654-0.508-3.25-0.938-4.851
		c13.535,12.781,16.992,44.594,27.129,62.109l1.406-0.166c1.015,9.559-5.352,20.115-8.691,28.767
		c-1.875,4.832,3.223,8.291,1.973,9.914c-2.422,3.133-6.973,5.631-10.234,7.906l0.156,1.301c3.809,1.729,5.605,1.668,6.992,5.754
		c0.761,2.271,0.742,4.695,0.801,7.068c-4.414,2.311-8.828,4.57-13.066,7.195c2.227,2.367,4.492,2.969,7.461,3.936
		c1.016,3.068,1.445,3.756-0.039,6.811c-0.352,0.715-0.879,1.289-1.367,1.894c6.387-3.857,7.793-4.891,15.234-4.535
		c-1.133,3.646-3.75,4.93-7.071,6.701c-7.754,4.152-16.094,7.109-23.828,11.379l-0.117,1.41c5.156,0.707,9.316,1.463,14.18,3.451
		c2.246,0.918,4.531,1.248,6.894,1.686c1.68,0.308,0.977,0.078,2.402,0.805c-10.195,7.586-24.472,11.912-36.875,14.045
		c9.648,1.85,22.383,2.904,31.27,6.777c-10.547,7.607-26.328,10.852-39.121,11.584c11.523,4.061,23.131,7.878,34.824,11.449
		c-10.293,4.719-22.109,9.195-33.184,11.635c8.281,4.387,16.699,6.77,25.664,9.271c-13.086,9.795-27.168,10.807-42.891,12.058
		c5.059,1.223,12.91,2.186,17.246,4.832l-0.332,1.248c-5.43,3.019-60.156-5.645-69.804-6.59c-44.199-4.33-88.73-9.1-133.086-11.178
		c-37.855-1.773-76.742-0.445-114.275-5.619c-52.025-7.174-102.527-22.906-154.474-29.924c6.191-24.564,14.744-48.845,22.439-72.998
		c10.869,22.41,16.053,47.648,26.338,70.467c11.938-51.241,25.806-101.954,41.605-152.138c7.496,11.361,8.727,26.592,16.01,37.424
		c5.629,0.147,9.533-1.701,14.402-4.203c2.629-1.351,5.293-2.945,8.283-3.297c19.734-2.314,40.527-2.025,60.437-3.471
		c11.008-0.801,21.984-3.537,32.99-3.926c12.918-0.457,37.201,7.891,48.256,1.703c3.301-7.08,5.566-14.691,8.047-22.094l6.348,17.57
		c2.773,0.465,3.984,0.246,6.699-0.455c12.051-3.131,40.41,7.676,49.101-0.803l1.992,1.975c1.856-1.418,2.969-2.896,3.867-5.039
		C2045.053,1305.628,2061.225,1248.202,2058.198,1240.721z"/>
	<path style="fill:#0B6CA5;" d="M1800.724,1337.124c5.629,0.147,9.533-1.701,14.402-4.203c2.629-1.351,5.293-2.945,8.283-3.297
		c19.734-2.314,40.527-2.025,60.437-3.471c11.008-0.801,21.984-3.537,32.99-3.926c12.918-0.457,37.201,7.891,48.256,1.703
		c-8.594,30.16-16.293,61.129-26.934,90.623c-10.25-26.683-17.283-54.455-27.379-81.06c-9.744,37.699-18.824,75.773-30.092,113.047
		c-9.662-29.418-16.328-59.889-27.535-88.806c-7.723,26.353-15.207,52.902-23.666,79.023
		C1821.55,1408.258,1814.595,1361.645,1800.724,1337.124z"/>
	<path style="fill:#0B6CA5;" d="M1979.487,1319.407c2.773,0.465,3.984,0.246,6.699-0.455c12.051-3.131,40.41,7.676,49.101-0.803
		l1.992,1.975c0.449,1.344,0.664,2.584,0.762,4.008c0.859,11.088-21.328,92.828-28.145,101.06
		C2013.725,1412.59,1985.366,1336.588,1979.487,1319.407z"/>
	<path style="fill:#3357B0;" d="M2080.268,1308.596c5.742,2.268,36.641,5.154,41.972,3.154c1.778-0.67,2.481-1.183,3.496-2.785
		l0.234,0.998c0.996,10.305-19.258,75.805-24.551,84.93C2104.116,1386.481,2084.526,1320.25,2080.268,1308.596z"/>
	<path style="fill:#3357B0;" d="M2128.373,1309.958l2.637-1.361c2.071,3.727,1.602,9.951,4.414,12.461l1.387,0.059
		c11.445,0.603,23.281,4.387,34.453,6.994c1.035-2.162,1.992-4.201,3.399-6.152c0.234,9.725-12.52,55.279-16.797,66.006
		c-1.23,3.07-3.261,5.627-5.449,8.064c0.215-0.791,0.332-1.205,0.508-2.059C2154.409,1386.08,2133.686,1317.909,2128.373,1309.958z"
		/>
	
		<linearGradient id="SVGID_00000131340583092532756780000004248529764587323549_" gradientUnits="userSpaceOnUse" x1="906.4004" y1="1458.9769" x2="720.9373" y2="1425.9603" gradientTransform="matrix(1.9531 0 0 -1.9531 -1.0869 3909.3369)">
		<stop  offset="0" style="stop-color:#11347C"/>
		<stop  offset="1" style="stop-color:#086EA4"/>
	</linearGradient>
	<path style="fill:url(#SVGID_00000131340583092532756780000004248529764587323549_);" d="M1626.045,917.191
		c16.35-22.824,39.467-43.238,58.758-63.689c13.805-14.633,30.301-36.865,46.508-48.012l1.137,0.232
		c-0.785,20.428-37.933,104.158-46.508,132.775c17.811,17.286,35.38,34.816,52.705,52.59c-7.699,30.079-16.437,59.853-26.213,89.322
		c3.688,9.697,7.04,19.507,10.059,29.432c-28.301,21.777-63.035,36.961-90.074,59.984c-5.334,17.164,1.432,44.935,2.291,63.551
		c-29.707,17.176-59.48,33.195-90.39,48.109c-14.652,6.926-22.939,36.305-28.188,51.148c-3.871,10.945-5.379,25.469-11.318,35.308
		l-1.609-4.271c-2.055-0.324-3.033-0.41-4.959,0.43c-7.119,4.58-34.013,4.574-42.717,2.908c-1.451-0.277-0.975-0.131-1.969-1.371
		l-0.945,0.453c-5.939-12.166-8.297-28.084-12.553-41.188c16.793-21.608,35.025-41.924,54.697-60.947
		c17.648-17.26,35.375-32.328,50.195-52.295c12.967-17.471,19.09-37.891,29.496-56.736c16.152-29.25,37.449-58.363,57.824-84.84
		C1632.244,1019.197,1625.963,968.169,1626.045,917.191z"/>
	<path style="fill:#0D478C;" d="M1616.822,1358.19c11.48,29.014,18.666,59.726,30.828,88.431
		c-18.539-2.324-37.031-5.592-55.496-8.467C1602.584,1412.399,1607.234,1384.282,1616.822,1358.19z"/>
	<path style="fill:#3D8FDD;" d="M1452.611,1366.09l0.945-0.453c0.994,1.24,0.517,1.094,1.969,1.371
		c8.703,1.666,35.597,1.672,42.717-2.908l0.709,1.974c-1.514,8.58-11.953,55.635-17.457,59.4c-0.453,0.311-0.988,0.477-1.482,0.715
		l-11.637-0.793C1464.203,1405.574,1457.961,1385.643,1452.611,1366.09z"/>
	<path style="fill:#0D478C;" d="M1561.822,1368.051c7.568,22.998,14.523,46.475,24.111,68.726
		c-14.898-1.327-29.781-2.81-44.648-4.449C1550.535,1412.09,1556.402,1389.571,1561.822,1368.051z"/>
	<path style="fill:#0D478C;" d="M1498.951,1366.075c1.574,0.617,2.127,0.379,2.834,2.002c8.678,19.887,14.805,41.734,22.563,62.152
		c-14.422-1.357-30.211-1.131-44.336-4.039c0.494-0.238,1.029-0.404,1.482-0.715
		C1486.998,1421.709,1497.438,1374.655,1498.951,1366.075z"/>
	<path style="fill:#07265E;" d="M998.408,1472.785c16.158-8.885,36.762-13.162,54.49-17.914
		c126.744-33.973,285.382-41.482,415.477-29.475l11.637,0.793c14.125,2.908,29.914,2.682,44.336,4.039l16.938,2.1
		c14.867,1.639,29.75,3.122,44.648,4.449l6.221,1.377c18.465,2.875,36.957,6.143,55.496,8.467
		c15.377,2.351,31.652,3.842,46.681,7.748c51.947,7.018,102.449,22.75,154.474,29.924c37.533,5.174,76.42,3.846,114.275,5.619
		c44.355,2.078,88.886,6.848,133.086,11.178c9.648,0.945,64.375,9.609,69.804,6.59l0.332-1.248
		c8.496,0.771,16.777,2.162,25.176,3.687c-9.785,8.637-27.969,12.397-40.605,14.996c12.5,2.455,26.27,3.783,38.438,7.23
		c-9.531,8.898-32.676,11.904-45.156,13.715c11.992,2.689,26.035,4.461,37.48,8.684c-6.934,6.236-24.551,11.137-33.847,13.346
		c8.672,0.959,19.609,0.963,27.617,4.334l-0.196,1.639c-3.398,1.158-6.445,2.158-10.02,2.545
		c-5.82,6.93-29.883,10.404-39.355,12.369c11.901,1.897,23.795,3.86,35.683,5.889c-0.254,0.287-0.469,0.6-0.742,0.859
		c-7.226,6.774-25.215,12.471-34.902,15.877c-24.199,8.498-49.199,15.373-73.652,23.084l-141.134,45.205
		c-41.406,13.455-360.397,124.332-381.714,122.771c-9.859-0.723-41.941-10.434-54.264-13.207
		c-51.683-11.633-103.293-23.351-155.226-33.896c-106.937-22.228-214.086-43.383-321.446-63.467
		c-58.5-11.111-118.138-19.715-176.109-33.207c-8.103-1.887-32.301-12.168-37.855-18.135c3.06-1.076,6.16-1.338,9.359-1.709
		l0.043-1.559c-2.324-1.478-4.953-2.639-5.965-5.344l8.055,0.592c-2.252-6.572-12.838-9.984-16.002-16.291
		c-1.322-2.639-2.395-4.965-1.434-7.754l5.666-1.979c2.91-6.348-2.607-14.896-0.732-22.527c0.359-1.461,0.545-2.871,0.699-4.367
		c-2.371-1.244-4.127-2.248-6.086-4.123l5.367-0.945l1.047-2.098l-5.672-4.768c-1.215-4.5,1.988-6.469,2.346-11.359l0.473,2.596
		l-0.053-2.035c-1.766-2.203-3.775-4.842-4.504-7.615c-1.145-4.369-0.109-9.969-0.664-14.602
		c-1.824-15.266-4.443-30.543-6.934-45.715c-10.01,18.098-17.404,39.424-22.852,59.349c-1.199,4.387-1.041,9.533-2.436,13.682
		c-1.25,3.711-2.482,5.158-5.744,7.053c-2.354-2.42-4.791-4.539-6.016-7.762l2.553-3.252l-6.233-1.156
		c2.908-0.42,3.988-0.723,6.307-2.725c0.65-8.84-9.121-5.084-13.797-10.549l0.443-3.853c3.529-2.582,8.375-1.219,12.685-2.77
		c0.152-7.142-11.873-5.934-16.451-10.748l0.629-1.734c4.342-1.217,8.486-2.396,12.615-4.252l-2.396-1.301
		c-3.787,0.143-7.197,0.559-10.729-1.053c-0.975-2.797-1.582-3.531-0.752-6.447c3.061-0.035,6.121,0.001,9.18,0.108
		c-0.082-1.975-4.998-5.09-6.56-7.795c-2.137-3.701-4.039-9.676-2.85-13.806l4.267-1.129c-3.24-0.998-5.865-2.262-8.803-3.941
		l0.172-2.398c2.882-2.093,5.709-4.256,8.482-6.49c-4.168-1.842-8.406-3.264-11.521-6.707c1.338-2.453,1.932-2.312,4.57-3.369
		c-0.088-0.379-0.127-0.773-0.266-1.137c-2.055-5.443-2.977-10.275-3.91-16.025l-0.551,2.205c-0.461-0.726-1.223-1.836-1.467-2.642
		c-0.924-3.059,0.541-4.4,2.043-6.814c12.057,4.158,54.133,0.746,70.314,1.332c61.014,2.213,123.449,10.658,183.398,22.066
		C974.64,1467.149,988.257,1468.613,998.408,1472.785z"/>
	<path style="fill:#293F93;" d="M998.408,1472.785c16.158-8.885,36.762-13.162,54.49-17.914
		c126.744-33.973,285.382-41.482,415.477-29.475l11.637,0.793c14.125,2.908,29.914,2.682,44.336,4.039l16.938,2.1
		c14.867,1.639,29.75,3.122,44.648,4.449l6.221,1.377c18.465,2.875,36.957,6.143,55.496,8.467
		c15.377,2.351,31.652,3.842,46.681,7.748c51.947,7.018,102.449,22.75,154.474,29.924c37.533,5.174,76.42,3.846,114.275,5.619
		c44.355,2.078,88.886,6.848,133.086,11.178c9.648,0.945,64.375,9.609,69.804,6.59l0.332-1.248
		c8.496,0.771,16.777,2.162,25.176,3.687c-9.785,8.637-27.969,12.397-40.605,14.996c12.5,2.455,26.27,3.783,38.438,7.23
		c-9.531,8.898-32.676,11.904-45.156,13.715c11.992,2.689,26.035,4.461,37.48,8.684c-6.934,6.236-24.551,11.137-33.847,13.346
		c8.672,0.959,19.609,0.963,27.617,4.334l-0.196,1.639c-3.398,1.158-6.445,2.158-10.02,2.545c-0.371-1.027-1.543-2.289-2.207-3.185
		c-14.492-4.883-31.074-6.846-46.133-9.779c-26.465-5.152-52.832-10.59-79.394-15.172c-54.023-9.316-108.174-18.137-162.89-22.123
		c-173.328-12.627-357.491,11.035-525.046,55.346c-36.906-11.365-72.482-26.797-109.08-39.131
		C1160.77,1515.807,1080.092,1492.548,998.408,1472.785z"/>
	
		<linearGradient id="SVGID_00000150094796607011791800000009340551355338582915_" gradientUnits="userSpaceOnUse" x1="1244.5664" y1="1503.6277" x2="1196.7527" y2="1365.0149" gradientTransform="matrix(1.9531 0 0 -1.9531 -1.0869 3909.3369)">
		<stop  offset="0" style="stop-color:#07328E"/>
		<stop  offset="1" style="stop-color:#185BC4"/>
	</linearGradient>
	<path style="fill:url(#SVGID_00000150094796607011791800000009340551355338582915_);" d="M2272.631,914.148
		c16.777,8.252,68.984,68.451,89.59,85.541c14.492,12.006,31.973,9.48,46.66,18.574c12.559,7.76,19.063,23.373,29.941,33.219
		c11.621,10.523,47.539,29.226,53.828,38.639c20.918,11.433,40.645,29.08,59.688,43.512c26.387,19.99,53.34,39.238,79.765,59.16
		l-0.43,1.635c-0.488,1.858-1.27,3.365-2.207,5.039l1.269,2.023c5.703,1.189,11.953,0.006,17.734-0.238
		c-7.988,8.502-14.941,15.523-24.863,21.807l-1.504,0.211c2.52,1.902,5.332,2.684,8.281,3.666
		c-3.75,4.488-10.469,8.586-11.66,14.166c3.457,2.096,6.933,1.576,10.801,1.418l1.074,1.18c-5.938,6.586-12.734,12.205-18.73,18.658
		c-3.164,3.393-8.203,4.963-11.035,8.479l0.859,1.904c11.042,1.069,22.012,2.644,32.91,4.725
		c-5.567,7.996-32.656,15.328-33.242,19.305l-1.797-0.865c-5.078-2.438-8.594-3.826-14.336-3.645l-2.07-1.465
		c3.906-1.379,11.602-0.9,13.828-3.791c-2.93-2.133-5.352-2.918-8.828-3.807l0.488-0.621l-2.051,0.057
		c2.07-1.422,4.18-1.313,6.601-1.436l0.098-1.586c-3.613-2.008-9.805-4.406-11.855-8.031l-0.215-1.877
		c-1.602-14.623-19.98-71.019-27.207-83.242c1.191,11.188-16.406,60.27-21.114,73.379c-3.359,9.359-9.727,20.537-9.98,30.391
		c-2.207,1.283-4.316,2.611-6.758,3.418l-2.148,0.246c-8.652-19.943-13.867-57.679-25.469-73.154c0.879,2.275,1.406,4.043,1.25,6.51
		c-0.859,13.49-12.969,62.609-21.738,70.674c0.547-2.498,0.313-4.078-0.391-6.574c-2.793-9.928-16.27-45.933-24.355-50.393
		c-1.074-3.238-4.102-4.594-6.836-6.551c0.957-2.096,2.734-2.727,4.648-3.766l0.957-0.5c-0.82-3.898-4.902-5.883-7.988-8.332
		c0.02-0.377,0.02-0.752,0.059-1.127c0.136-1.512,0.254-2.875,0.176-4.406c-0.41-9.519-24.59-74.211-30.586-79.763
		c2.012,11.586-10.898,58.219-16.934,69.324c-3.887,7.164-10.742,12.346-13.887,19.697c1.973,4.313,5.254,1.738,8.438,4.787
		c-3.75,4.021-8.164,6.568-12.813,9.361c-48.086-22.652-88.984-62.307-136.64-85.34c-3.906-5.83-48.672-33.594-56.738-37.902
		c-9.98-14.119-70.351-44.244-88.105-49.551c3.633-0.291,6.484-1.15,9.551-3.1c14.883-9.498,28.965-22.139,42.676-33.322
		c27.617-22.471,54.87-45.374,81.758-68.709c15.996-13.824,35.234-27.734,49.355-43.35
		C2271.693,916.994,2272.143,915.949,2272.631,914.148z"/>
	<path style="fill:#293F93;" d="M2175.17,1116.438c8.496-4.726,15.586-31.252,20.469-40.916
		c15.332-30.43,35.859-58.48,50.703-88.955c6.27-12.871,9.395-28.354,16.191-40.947c1.25-2.322,3.125-2.211,5.469-2.789
		c1.406,11.66-10.977,37.867-13.359,51.252c-5.078,28.568-9.375,57.508-13.242,86.266c-2.051,15.312-4.785,63.898-9.492,73.992
		C2228.002,1148.511,2183.237,1120.747,2175.17,1116.438z"/>
	<path style="fill:#5AB3F2;" d="M2492.65,1090.12c15.684-20.43,75.976-48.395,101.796-56.129
		c42.637-12.783,97.52-16.465,137.636,5.937c4.629,2.578,9.57,5.289,11.055,10.442c-0.429,0.322-0.859,0.656-1.289,0.965
		c-8.359,5.885-37.226,5.957-40.664,13.731c6.738,7.338,22.051,9.93,31.621,10.354c7.871,0.349,16.563-0.401,23.828-3.705
		c-9.336,12.502-51.621,28.047-67.695,32.807c-3.281,2.729-4.746,2.631-8.867,3.281c0.762-4.799-0.547-7.232-2.891-11.365
		c-4.492,2.92-9.063,20.236-11.406,25.853c-4.414,10.584-13.418,23.539-15.918,34.351c-0.449,1.973-0.313,3.896-0.117,5.883
		c0.039,0.443,0.078,0.887,0.117,1.33c0.098,1.029,0.313,2.045,0.449,3.072c0.41,3.281-2.617,6.318-4.687,8.664
		c-2.324,2.643-4.883,4.727-5.586,8.33l3.809-0.168c-0.664,2.852-1.602,4.484-4.199,6.127c-2.168,1.361-5.078,2.205-7.539,2.912
		c-26.426-19.922-53.379-39.17-79.765-59.16C2533.294,1119.2,2513.568,1101.554,2492.65,1090.12z"/>
	<path style="fill:#0D478C;" d="M2293.529,1257.54c5.508,6.299,7.891,11.578,8.984,20.076l4.395,2.426
		c2.188,8.377,3.652,19.746,9.766,26.045c3.515,1.334,5.137,1.894,8.867,0.203c5.078-2.311,11.426-9.449,12.949-14.816
		c0.293-1.006,0.469-2.041,0.723-3.053c0.293-1.127,0.645-2.236,0.977-3.354l0.742-2.568l0.039,0.908
		c4.941-6.016,5.821-11.412,5.234-19.021c6.973,7.664,13.379,32.305,13.613,42.729l0.43,3.914l5.918,2.068
		c0.606,3.141,1.055,3.826-0.879,6.621c-4.961,7.158-19.141,12.432-27.11,15.4c9.668,1.496,19.551,3.516,29.336,4.01
		c-6.367,9.746-23.301,14.793-34.082,17.107c-4.472,0.959-9.023,1.664-13.535,2.359c11.875,1.463,23.105,3.006,35.039,1.082
		c-6.269,11.596-22.402,21.029-34.121,26.234c7.969,0.881,16.66,1.15,24.453,2.979c-2.656,5.475-6.816,8.014-12.364,9.99
		c-4.863,1.734-9.961,2.785-15,3.83c7.519,3.391,15.058,6.813,23.047,8.922c3.086,0.814,7.324,0.553,10.059,1.65
		c-9.297,18.242-26.445,29.6-45.645,35.639c-0.99,0.315-1.985,0.615-2.988,0.9c13.34,1.047,25.391,3.574,38.262,7.133l0.39,0.822
		c5,1.527,8.75-0.121,13.457-1.721c-6.895,16.057-30.332,31.58-45.977,38.068c-1.699,0.701-3.379,1.295-5.137,1.791
		c11.445,3.02,29.668,10.113,41.074,6.391c0.488-0.154,0.977-0.27,1.445-0.418c0.293-0.09,0.567-0.199,0.86-0.299
		c-3.672,4.875-48.184,41.756-54.414,45.111c-2.383-0.724-2.539-0.564-3.848-2.631c2.91-1.947,9.004-4.156,9.863-7.244
		c-2.637-2.1-6.348-3.76-8.691-5.898c-3.711-3.357-3.203-10.494-6.133-14.75c2.715-1.307,4.844-2.01,7.793-2.623
		c3.535-0.734,6.406-2.291,8.965-4.895c-1.816-6.127-20.586-18.719-18.77-22.379l6.055-1.205l0.039-2.117
		c-6.406-6.455-15.078-8.865-21.504-15.621c2.383-1.012,4.355-0.465,6.797-0.047c-0.977-4.799-9.394-11.205-7.773-14.814
		c3.652-0.266,7.188-0.379,10.703-1.524c-1.172-9.857-17.91-17.717-19.453-26.496c2.695-0.334,5.39-0.543,8.125-0.715
		c0.566-1.201,1.406-2.017,0.938-3.328c-2.735-7.938-10.938-16.58-18.281-20.529c7.187-1.768,15.176-3.113,21.308-7.469
		c-7.813-5.705-19.023-9.332-27.695-14.01c5.605-0.424,15.195,0.098,19.16-4.127c1.738-0.473,3.145-0.877,4.531-2.078
		c4.805-4.104,16.25-57.242,16.543-65.439c1.582-1.682,2.5-2.908,3.359-5.092C2288.393,1291.354,2297.982,1267.37,2293.529,1257.54z
		"/>
	<path style="fill:#3357B0;" d="M2302.514,1277.616l4.395,2.426c2.188,8.377,3.652,19.746,9.766,26.045
		c3.515,1.334,5.137,1.894,8.867,0.203c5.078-2.311,11.426-9.449,12.949-14.816c0.293-1.006,0.469-2.041,0.723-3.053
		c0.293-1.127,0.645-2.236,0.977-3.354l0.742-2.568l0.039,0.908c0.098,0.647,0.273,1.693,0.273,2.401
		c-0.059,10.365-10.938,49.252-17.148,56.285c0.098-0.461,0.215-0.916,0.293-1.383
		C2325.209,1335.35,2306.4,1282.694,2302.514,1277.616z"/>
	
		<linearGradient id="SVGID_00000062914429915966162630000004323058090303607180_" gradientUnits="userSpaceOnUse" x1="41.4408" y1="1448.6716" x2="18.5226" y2="1559.8362" gradientTransform="matrix(1.9531 0 0 -1.9531 -1.0869 3909.3369)">
		<stop  offset="0" style="stop-color:#47ACF4"/>
		<stop  offset="1" style="stop-color:#84CDFA"/>
	</linearGradient>
	<path style="fill:url(#SVGID_00000062914429915966162630000004323058090303607180_);" d="M0,899.718
		c32.532-23.787,62.509-41.228,101.4-52.344l1.97,2.48c-0.629,1.314-1.639,2.852-1.711,4.336
		c-8.745,43.291-25.655,85.916-42.511,126.597l17.001-15.707c-7.574,20.68-18.752,33.832-30.784,51.615
		c7.901-2.883,15.493-5.752,22.896-9.805c-6.516,19.893-22.945,32.574-34.581,49.103c9.648-2.908,19.258-5.766,28.662-9.414
		c-7.847,18.939-16.347,33.562-35.307,43.074l-1.728-1.293l-0.906,3.436c-2.806-0.904-5.474-10.074-7.099-13.158l-1.867,0.305
		C7.854,1067.427,4.179,1049.982,0,1036.779V899.718z"/>
	<path style="fill:#0D478C;" d="M2468.06,1297.922c8.77-8.064,20.879-57.183,21.738-70.674c0.156-2.467-0.371-4.234-1.25-6.51
		c11.602,15.474,16.816,53.211,25.469,73.154l2.148-0.246c1.64,1.236,2.793,2.086,4.023,3.777c1.387,1.945,0.586,1.041,1.934,2.502
		c1.582,1.734,2.852,2.816,3.457,5.193c-3.242,0.475-6.387,0.557-9.004,2.719c2.48,0.676,4.531,1.318,6.816,2.521
		c-1.347,4.061-5.508,6.422-8.77,8.959l1.641,1.684l7.149-1.006l1.855,1.477c-0.176,0.457-0.312,0.924-0.488,1.373
		c-2.344,5.658-15.254,9.006-20.879,11.158c0.293,2.01,7.207,4.205,9.277,6.664l-0.215,2.701c-4.167,2.439-8.314,4.915-12.441,7.428
		l0.293,1.244c4.277,0.488,7.969,0.809,11.895,2.728l0.195,2.486c-4.98,6.873-11.895,10.459-19.61,13.471l20.938,2.467
		c-0.176,1.137-0.156,1.42-0.742,2.603c-2.207,4.484-7.051,8.98-11.836,10.506c-17.227,5.49-37.949-8.871-52.812-15.891
		c9.375,0.594,18.222,1.426,27.422,3.539c-0.41-1.695-0.879-2.25-2.09-3.588c-8.066-8.939-15.527-19.5-25.234-26.691
		c6.543-0.088,12.969,0.299,19.492,0.82c-4.434-11.012-13.145-20.188-21.816-28.006c5.429-0.938,8.457,1.766,13.945-1.686
		l-3.125,0.566l3.477-1.641c-3.652-5.137-15.117-10.162-20.879-13.607c6.426-0.172,13.32,1.06,19.746,1.722
		c-0.313-0.857-0.41-1.191-0.859-2.076c-4.668-9.213-21.777-15.617-30.996-18.943c7.871,0.617,16.758,3.143,24.571,2.711
		c2.734-0.151,3.613,0.162,5.488-1.881c-2.969-5.953-11.055-8.902-15.586-14.018l0.469-2.756l5.664-3.117
		c-1.621-3.494-5.859-8.428-6.465-11.926c-0.39-2.164-1.27-4.119-2.07-6.164l3.32-2.717c8.086,4.459,21.563,40.465,24.355,50.393
		C2468.373,1293.844,2468.607,1295.424,2468.06,1297.922z"/>
	<path style="fill:#0D478C;" d="M520.008,1299.786c11.617-4.867,22.811-10.152,33.984-15.963l1.822,5.299
		c11.058,14.242,29.73,57.529,32.461,75.388c-1.637,2.705-1.795,2.809-4.703,4.064l-6.709-2.777l-0.871,1.471
		c3.592,2.381,6.941,3.526,8.162,7.809l-1.397,1.504l-3.541,0.119c0.785,2.481,1.318,3.922,0.861,6.555l-6.451-5.295l-1.699,1.014
		c2.432,3.422,4.865,6.447,5.945,10.576l-2.26,2.947l-5.842,0.25c1.199,2.27,3.654,5.553,3.117,7.996
		c-2.428-1.877-4.301-3.115-7.234-4.055l-0.156,1.029c2.072,1.936,4.07,3.906,6.049,5.935l-5.406-0.037l-0.522,0.836l4.553,3.426
		l-0.191,1.391l-9.336,0.623c0.246,2.717,1.299,4.799,2.432,7.226c-0.697,4.328-0.467,6.074-3.488,9.363
		c-1.865-0.137-3.141-0.182-5.006,0.146c2.095,2.749,4.102,5.561,6.02,8.436c-1.742,0.373-2.602,0.367-4.41,0.014
		c-0.553-0.107-1.098-0.248-1.646-0.373l-3.221,5.162c-2.697-1.016-2.84-1.031-4.391-3.442c0.322-1.008,0.67-2.01,0.933-3.033
		c1.971-7.625-6.465-10.894-9.598-17.143c-1.32-2.633-1.09-3.158-0.061-5.664l5.816-1.422l1.111-1.932
		c-3.156-5.586-9.57-4.313-13.217-9.033c2.463,0.014,3.885-0.139,6.125-1.184l-0.547-1.795c-3.068-1.133-6.18-2.016-9.326-2.908
		l-0.141-2.652l3.209,2.658l3.24-1.559c1.582-3.078,1.816-3.147,1.148-6.5c-2.191,0.932-4.143,1.432-6.455,1.914l-1.258-2.166
		c2.627-3.328,3.672-3.15,7.65-4.23l-0.287-2.219l-6.729,1.121l-1.316-1.363c0.008-4.553,0.27-5.252,2.682-9.127l-2.248-0.652
		l2.379,0.174c-4.898-7.666-4.963-10.941-5.617-19.582c-0.412-5.441-1.193-6.854-5.176-10.162l2.99-2.254l0.105-1.822l-6.365-0.746
		l0.357-1.978l6.248-1.014c0.924-5.594-6.564-2.42-9.432-7.082l0.889-2.865l5.973-2.521l0.703-2.105l-4.914-4.139l4.639-0.545
		C522.321,1306.758,520.954,1304.055,520.008,1299.786z"/>
	<path style="fill:#3357B0;" d="M520.008,1299.786c11.617-4.867,22.811-10.152,33.984-15.963l1.822,5.299
		c-5.094,25.117-8.145,50.199-18.105,74.121c-4.559-16.391-9.271-32.547-15.061-48.559c-1.752,0.652-1.205,0.205-1.926,0.893
		l-4.914-4.139l4.639-0.545C522.321,1306.758,520.954,1304.055,520.008,1299.786z"/>
	<path style="fill:#293F93;" d="M622.926,1438.754c9.326,6.895,26.406,0.705,37.67,1.777c0.68,6.674,4.682,12.449,5.305,19.312
		l-2.467,1.377c-1.637-1.205-2.84-2.16-4.844-2.625c-1.959,4.582,0.963,10.883,0.234,16.221l-4.717-0.377
		c-1.26,1.965-1.195,1.809-0.728,4.104l5.533,2.902c0.926,3.809,1.691,5.512,0.67,9.354c-1.844-0.223-3.619-0.309-5.473-0.373
		c-2.461,1.596-4.971,2.744-5.973,5.67l5.498,2.17l0.719,2.017l-6.361,4.703c0.449,4.068,3.078,2.422,4.646,5.918
		c-2.531,0.744-3.916,0.936-5.553,3.152l1.291,5.791l-1.182,1.412c-1.375-0.033-2.228-0.18-3.344-1.041
		c-4.838-3.729-8.176-6.707-14.172-8.459c-0.465-0.137-0.934-0.262-1.4-0.395c3.418-0.195,4.422,0.094,7.195-2.051l-0.428-2.83
		c1.746-0.779,3.371-1.539,5.033-2.494c-1.584-6.725-10.115-9.063-12.518-15.652c1.576-0.879,2.803-1.285,4.572-1.531l1.852-0.24
		c-3.279-2.486-6.414-4.488-8.332-8.244l1.246-1.754c2.625,0.941,4.691,1.617,7.533,1.629c0.309-3.17-0.516-3.398-2.416-5.834
		l-6.803-0.617l-0.578-1.838c3.074-0.816,3.816-0.619,5.769-3.252c-1.584-3.785-6.127-5.201-9.48-7.604
		c2.842-0.514,5.572-1.092,8.348-1.898l0.519-1.604c-0.396-0.037-0.793-0.063-1.188-0.111c-4.174-0.514-5.709-0.707-8.244-4.09
		C619.875,1446.033,620.018,1443.305,622.926,1438.754z"/>
	<path style="fill:#3357B0;" d="M422.864,1295.003c4.299-6.809,5.152-16.971,8.201-24.617c7.42,17.764,16.594,35.824,22.576,54.078
		c1.748,5.408,4.846,11.457,8.09,16.121l-3.508,5.461l0.756,2.076c3.91,0.613,7.574,1.301,11.355,2.479l-0.848,1.873
		c-1.893,0.742-3.557,1.365-5.623,1.346c-6.133-0.057-13.965-3.545-18.184-7.922c-0.012-2.65,0.701-4.27,1.793-6.605
		c0.971-2.078-2.279-3.684-2.902-5.633c-0.514-1.605-0.201-4.756-0.277-6.541c-0.855,2.012-1.822,4.098-2.397,6.207
		c-1.037,3.82-0.932,4.969,1.137,8.229c-1.641,1.223-3.381,2.188-5.148,3.213c-3.012-0.101-3.332-0.051-5.738-1.814l5.455-4.438
		l0.129-2.688l-14.861-14.824c1.008-1.801,1.451-2.873,1.564-4.941l-3.297-0.547l0.461-3.666l-4.105,0.535
		c-3.672-6.951-15.291-9.826-17.666-18.092l1.434-0.939c7.32,3.377,12.787,4.545,20.715,1.961
		C422.274,1295.215,422.569,1295.106,422.864,1295.003z"/>
	<path style="fill:#3D8FDD;" d="M283.939,1225.348c8.914,1.199,16.061,0.246,24.627-2.371c-11.58,16.738-18.988,25.109-38.184,33.24
		c8.254,3.637,20.023,3.537,26.896,7.93c-2.754,4.521-8.553,6.326-13.484,7.502c-10.822,2.578-20.326-0.68-29.518-6.51
		c-11.623-7.371-20.979-17.824-28.107-29.506c14.096,5.654,30.164,11.135,45,4.678c3.207-1.394,5.104-2.662,7.186-5.447
		c0.959-0.326,1.396-0.416,2.312-1.033C284.085,1231.524,283.659,1229.005,283.939,1225.348z"/>
	<path style="fill:#3357B0;" d="M2227.982,1299.663l2.637-1.281c0.899,1.994,1.836,3.967,2.676,5.986
		c4.766,11.394,16.621,16.801,27.461,20.996c4.336,1.676,7.813,2.322,12.285,0.834c6.816-5.846,3.203-15.664,7.871-20.295
		l0.098,0.857c-0.293,8.197-11.738,61.336-16.543,65.439c-1.387,1.201-2.793,1.606-4.531,2.078
		c-1.328-8.658-11.895-9.193-13.769-15.484l6.953,0.502l0.449-1.287l-6.914-5.578l4.082-1.396c0.254-4.365-2.422-7.984-4.707-11.629
		C2238.197,1326.913,2236.01,1311.335,2227.982,1299.663z"/>
	<path style="fill:#3D8FDD;" d="M2680.071,1107.802c4.121-0.651,5.586-0.553,8.867-3.281c21.465,9.252,40.176,10.881,63.34,7.99
		c-8.711,8.814-46.094,22.857-48.105,29.871c-0.996,3.469,2.265,8.176-3.418,8.588
		C2691.692,1138.185,2689.251,1119.612,2680.071,1107.802z"/>
	<path style="fill:#3357B0;" d="M2585.228,1292.258c5.742-0.182,9.258,1.207,14.336,3.645l1.797,0.865
		c0.586-3.977,27.676-11.309,33.242-19.305c-10.899-2.081-21.869-3.656-32.91-4.725l-0.859-1.904
		c2.832-3.516,7.871-5.086,11.035-8.479c5.996-6.453,12.793-12.072,18.73-18.658l-1.074-1.18c-3.867,0.158-7.344,0.678-10.801-1.418
		c1.191-5.58,7.91-9.678,11.66-14.166c-2.949-0.982-5.761-1.764-8.281-3.666l1.504-0.211c4.043-0.098,7.871-0.154,11.895,0.4
		c1.309,1.656,0.801,2.256,0.683,4.291c-5.761,4.471-11.406,9.07-17.832,12.563c6.016-0.529,12.025-1.146,18.027-1.854
		c-8.301,13.324-19.14,25.021-33.125,32.484c8.496,0.545,17.422,0.924,25.508,3.83c6.015-1.957,11.973-3.98,16.562-8.586
		c-0.391,6.314-5.84,12.031-10.371,16.099c-6.035,5.428-24.219,9.607-26.933,14.289c5.156,3.639,10.332,4.578,16.484,5.467
		l-1.152,1.596l-6.816,0.939l-0.234,4.117l-1.133-2.447c0,0.186,1.055,2.135,1.172,2.342c3.965,1.533,15.762-3.725,19.903-5.061
		c-1.309,6.969-12.559,15.633-18.301,19.428c-2.265,1.5-4.531,2.262-7.168,2.918c-0.254,0.066-0.508,0.148-0.781,0.223
		c-1.699-0.527-3.711-2.201-5.254-3.176l1.23-1.814c-6.263-3.435-12.5-6.906-18.711-10.414c5.182-0.391,10.365-0.848,15.547-1.373
		l0.215-1.502c-2.383-0.858-2.91-0.953-4.473-2.893l5.078-1.469c-1.68-3.014-13.477-7.211-17.383-10.355
		C2585.892,1292.825,2585.56,1292.538,2585.228,1292.258z"/>
	<path style="fill:#3D8FDD;" d="M2936.321,1062.031c6.855,3.197,12.266,3.758,19.551,1.279c4.414-1.51,9.59-4.152,12.773-7.604
		c-0.644,12.83-10.078,25.285-19.16,33.727c-1.237,1.165-2.572,2.209-4.004,3.133c-1.433,0.923-2.937,1.711-4.512,2.363
		c-12.48-6.83-23.613-15.857-35.898-22.631c7.265,0.623,23.808,3.711,29.511-0.801c-1.758-2.99-3.418-3.334-6.484-4.873
		C2932.356,1065.616,2933.117,1065.038,2936.321,1062.031z"/>
	<path style="fill:#0B6CA5;" d="M381.261,1251.131c1.871,1.599,3.773,3.162,5.705,4.688c11.344,8.904,22.109,12.473,36.457,10.695
		c3.896-0.164,4.346-0.744,7.371,1.957l0.271,1.914c-3.049,7.646-3.902,17.808-8.201,24.617
		C406.403,1280.464,390.268,1272.421,381.261,1251.131z"/>
	<path style="fill:#5AB3F2;" d="M15.435,1078.945l1.867-0.305c1.625,3.084,4.293,12.254,7.099,13.158l0.906-3.436l1.728,1.293
		c0.697,0.812,1.037,1.308,1.836,1.939c5.41,4.271,12.925,1.592,19.065,0.92l1.581,1.367c-1.5,1.732-2.392,2.982-3.167,5.145
		l3.475,1.4l0.012,2.453c-2.407,2.857-4.899,5.516-7.736,7.951c-5.419,4.656-9.839,7.154-17.261,6.633
		c-3.616-2.316-3.793-2.769-5.433-6.773l1.141-1.037l8.812,1.109C30.415,1107.948,17.174,1084.138,15.435,1078.945z"/>
	<path style="fill:#0D478C;" d="M2609.993,1326.096c-0.683,1.703-0.273,1.859,0.254,3.545l6.543,1.174
		c-0.918,2.766-1.797,3.098-4.043,4.859c-2.324,0.467-4.57,0.789-6.934,0.309c-5.195-1.059-12.207-4.586-15.059-9.145l6.309,1.277
		l3.711-4.84l3.965-0.355C2606.282,1323.895,2608.294,1325.569,2609.993,1326.096z"/>
	<path style="fill:#0B6CA5;" d="M507.979,1291.057l1.674-3.629l1.437,0.818l0.051,1.449c0.166,3.889,0.459,6.666,2.172,10.24
		c2.646,0.658,4.096,0.385,6.695-0.15c0.945,4.269,2.313,6.973,0.44,11.107l-4.639,0.545l-3.996,2.953
		c-2.949-3.133-1.524-16.502-3.375-22.014C508.29,1291.936,508.132,1291.497,507.979,1291.057z"/>
	<path style="fill:#3357B0;" d="M2698.88,1159.696c12.656-1.215,24.805,10.691,37.246,13.438c9.278,2.047,18.555-0.738,26.426-5.568
		c-2.871,5.734-7.148,7.688-12.637,10.285c-0.352,0.484-0.684,1.012-1.094,1.451c-6.172,6.49-16.543,10.744-25.313,10.213
		c-6.035-0.365-13.984-2.625-18.027-7.443c-3.125-3.717,1.23-2.434,1.25-5.83c0.039-4.588-4.277-12.547-7.246-15.916
		C2699.29,1160.11,2699.094,1159.907,2698.88,1159.696z"/>
	<path style="fill:#3357B0;" d="M2962.199,1106.954l2.598,0.588c0.859,2.744,1.055,3.332,0.41,6.146
		c-2.226,9.605-8.672,18.654-16.894,23.974c-5.098-5.471-21.582-11.029-28.652-14.59c-3.847-5.791-11.426-9.861-17.148-13.531
		c10.137,1.551,19.492,5.795,29.902,6.77C2943.918,1117.386,2953.332,1114.306,2962.199,1106.954z"/>
	<path style="fill:#0D478C;" d="M242.011,1293.956c19.447,4.658,35.771,11.676,53.373,21.029l0.629,2.82
		c-1.141,0.24-2.271,0.44-3.416,0.651c-2.873,0.531-5.813,1.129-8.754,0.963C266.784,1318.452,252.589,1306.256,242.011,1293.956z"
		/>
	<path style="fill:#0D478C;" d="M239.792,1341.782c9.719,2.32,19.578,4.898,29.441,6.471c6.377,1.016,12.81,0.457,19.096,2.035
		l-6.211,4.063l-16.156,9.623c-9.781-4.16-19.154-8.916-26.537-16.697L239.792,1341.782z"/>
	<path style="fill:#293F93;" d="M2470.091,1394.139c9.941-0.617,19.98-0.736,29.941-1.086c-1.816,3.5-7.871,6.504-11.172,8.728
		l-0.059,1.564c3.359,0.215,6.563,0.492,9.863,1.109l-6.523,3.244c-4.414,3.467-10.137,4.16-15.508,5.385
		c-3.457-7.656-15.762-14.652-22.852-18.723C2459.232,1394.444,2464.642,1394.297,2470.091,1394.139z"/>
	<path style="fill:#0D478C;" d="M2593.665,1342.848c10.254,0.709,21.133-0.619,31.192,1.35l0.215,1.885l-3.867,2.836l-2.129,3.549
		C2610.501,1354.565,2600.97,1347.032,2593.665,1342.848z"/>
</g>
<g>
	<path style="fill:#293F93;" d="M0,0h2997.434c1.699,2.713,2.246,4.879,2.403,8.049c1.074,22.001,0.215,44.375,0.215,66.424
		l0.02,128.236l-0.039,60.734c0,8.328,1.074,18.514-0.449,26.639c-0.293,1.648-0.801,2.84-1.484,4.359
		c2.793,6.641,3.926,171.955,0.723,180.212c-0.215,0.563-0.488,1.105-0.723,1.66c-13.281,4.299-26.914,7.252-40.098,11.945
		c-40.332,14.369-75.781,40.955-105.332,71.568c-9.414,9.754-24.277,31.017-35.019,37.437
		c-11.602-30.494-81.875-75.863-111.934-89.336c-71.171-31.898-155.273-35.766-228.476-7.633
		c-68.75,26.41-129.726,79.221-159.707,146.914c-4.824,10.895-11.113,42.963-15.957,48.881c-23.672-0.682-46.27-0.289-69.766,2.826
		c-3.359,2.238-6.074,2.482-10.039,2.883c-0.078-5.502-8.164-17.252-11.348-22.098c-24.062-36.516-57.246-61.051-100.469-69.879
		c-47.871-9.775-91.347,2.885-131.289,29.293c-4.049-3.501-8.131-6.96-12.246-10.375c-52.551-43.732-113.668-65.988-182.421-59.484
		c-87.205,8.248-145.377,54-199.226,119.355c-1.438-1.41-2.929-2.76-4.475-4.049c-71.705-59.47-164.718-93.416-258.296-84.189
		c-113.275,11.17-202.773,69.551-273.673,155.939c-1.788-3.767-3.691-7.474-5.711-11.121
		c-41.363-75.723-111.617-136.381-195.046-160.609c-76.916-22.34-152.662-15.414-223,23.172
		c-0.73-29.828-3.883-58.472-15.103-86.381c-20.957-52.121-65.207-99.933-117.884-121.045c-13.787-5.525-31.621-6.047-43.777-11.467
		c-0.275-0.123-0.543-0.26-0.816-0.389c18.949-62.01,44.551-102.611,95.771-142.996c-76.379,13.813-134.621,40.098-179.966,105.709
		c-8.756,12.67-17.1,26.355-23.133,40.549c-54.228,21.022-96.734,47.449-129.162,97.045
		c-40.818-32.279-91.754-50.875-144.215-44.687C42.513,446.895,21.764,455.028,0,464.513V0z"/>
	<path style="fill:#3357B0;" d="M2753.059,440.622c8.047-9.205,13.457-25.33,19.297-36.265
		c21.348-39.865,50.39-72.982,90.879-93.888c39.434-20.348,91.972-29.65,134.863-16.027c2.793,6.641,3.926,171.955,0.723,180.212
		c-0.215,0.563-0.488,1.105-0.723,1.66c-13.281,4.299-26.914,7.252-40.098,11.945c-40.332,14.369-75.781,40.955-105.332,71.568
		c-9.414,9.754-24.277,31.017-35.019,37.437c-11.602-30.494-81.875-75.863-111.934-89.336
		c-71.171-31.898-155.273-35.766-228.476-7.633c-68.75,26.41-129.726,79.221-159.707,146.914
		c-4.824,10.895-11.113,42.963-15.957,48.881c-23.672-0.682-46.27-0.289-69.766,2.826c5.547-7.74,9.805-40.377,13.301-52.525
		c0.703-2.445,1.432-4.883,2.188-7.312c0.755-2.43,1.543-4.851,2.363-7.264c0.807-2.413,1.641-4.816,2.5-7.209
		c0.859-2.394,1.751-4.779,2.676-7.152c0.912-2.375,1.856-4.739,2.832-7.092c0.963-2.354,1.953-4.697,2.969-7.027
		c1.029-2.332,2.077-4.652,3.145-6.961c1.068-2.309,2.161-4.605,3.281-6.889c1.12-2.285,2.266-4.557,3.438-6.816
		s2.37-4.505,3.594-6.736c1.224-2.233,2.468-4.453,3.73-6.658c1.276-2.206,2.572-4.397,3.887-6.572
		c1.315-2.177,2.656-4.339,4.023-6.486s2.76-4.279,4.18-6.396c1.406-2.116,2.839-4.216,4.297-6.301
		c1.458-2.086,2.943-4.155,4.453-6.207c1.497-2.052,3.021-4.087,4.57-6.105s3.125-4.019,4.727-6.004
		c1.588-1.984,3.203-3.951,4.844-5.898c1.627-1.948,3.281-3.878,4.961-5.791c1.68-1.911,3.385-3.804,5.117-5.678
		c1.719-1.875,3.457-3.73,5.215-5.566c1.758-1.836,3.542-3.652,5.351-5.447c1.797-1.797,3.62-3.574,5.469-5.33
		c1.836-1.757,3.691-3.492,5.566-5.207c1.888-1.716,3.789-3.411,5.703-5.084c1.914-1.674,3.848-3.327,5.801-4.957
		c1.953-1.632,3.926-3.241,5.918-4.828c1.992-1.587,3.997-3.152,6.015-4.695c2.019-1.543,4.056-3.064,6.113-4.563
		c2.057-1.499,4.134-2.974,6.23-4.426c2.084-1.453,4.187-2.883,6.309-4.289c75.351-50.797,171.621-72.99,261.327-55.474
		C2670.306,402.339,2741.536,423.511,2753.059,440.622z"/>
	<path style="fill:#FEFEFE;" d="M2499.505,249.81c1.582,0.266,2.695,0.881,4.121,1.566c3.008,5.85,7.188,12.377,8.711,18.742
		c5.996,2.428,13.457,5.699,18.008,10.342c-2.207,3.939-9.785,7.293-13.398,10.66c-6.074,5.684-10.117,12.19-15.059,18.773
		c-4.512-3.207-6.953-12.801-11.406-17.5c-4.707-5.887-14.941-9.719-21.895-12.369c6.582-2.123,13.906-4.98,19.375-9.25
		C2494.74,265.503,2498.392,258.226,2499.505,249.81z"/>
	<path style="fill:#FEFEFE;" d="M1194.479,376.226l1.074,2.281c4.479,0.893,8.281,2.668,12.408,4.564l-3.922,3.766
		c1.281,1.893,3.123,2.254,5.174,3.164c-1.373,2.971-3.924,0.219-6.799,2.537l1.084,4.387l-1.317,1.31l-4.752-1.191l-3.711,3.92
		l1.678-1.461l-1.969,2.898l-1.586-5.035l-1.82-0.385l-3.793,2.934c1.105-12.154-3.238-5.791-7.207-12.313
		c2.584-1.797,5.924-3.658,7.926-6.094C1188.432,379.702,1191.524,379.968,1194.479,376.226z"/>
	<path style="fill:#FEFEFE;" d="M1077.861,119.397c1.131,1.514,2.308,2.848,3.58,4.241c1.811-0.235,1.969-3.527,4.574-4.572
		c0.293,2.231,0.039,2.153,1.602,4.025l4.482-3.726l0.387,0.58l-1.652,4.976c2.143,1.229,4.07,2.392,6.004,3.942
		c-3.523,3.352-4.082,3.424-4.607,8.183l-2.262,0.111l-1.865,1.669c-0.727,2.529-1.445,4.726-2.617,7.099
		c-0.734-2.382-1.271-4.587-2.873-6.562l-4.686,3.498c-0.391-1.361-0.602-2.548-0.764-3.971c-0.34-2.96-3.488-1.372-5.695-3.729
		c1.281-3.191,2.449-6.654,4.601-9.374C1077.767,123.645,1077.536,122.059,1077.861,119.397z"/>
	<path style="fill:#FEFEFE;" d="M139.168,258.745c1.798,4.213,1.99,8.977,4.509,12.928c1.606,2.52,6.226,2.662,9.169,3.279
		l0.242,1.805l-8.652,3.271c-3.411,3.307-3.939,9.285-4.997,13.797c-5.549-17.748-4.7-8.287-14.588-17.574
		c3.716-1.355,7.291-2.785,10.847-4.517L139.168,258.745z"/>
</g>
</svg>
