<?xml version="1.0"?>
<svg width="4000" height="4000" xmlns="http://www.w3.org/2000/svg" xmlns:svg="http://www.w3.org/2000/svg">
 <g class="layer">
  <title>Layer 1</title>
  <g id="svg_1">
   <!-- <rect fill="#FFFFFF" height="4000" id="svg_2" width="4000"/> -->
   <g id="svg_3">
    <g id="svg_4">
     <g id="svg_5">
      <path d="m1026.547,3502.455l0,0c-21.942,0 -39.729,-17.787 -39.729,-39.729l0,-651.309c0,-21.942 17.787,-39.729 39.729,-39.729l0,0c21.942,0 39.729,17.787 39.729,39.729l0,651.309c0,21.942 -17.787,39.729 -39.729,39.729z" fill="#C59066" id="svg_6"/>
     </g>
     <g id="svg_7">
      <path d="m986.818,2746.422c-7.257,0 -13.139,5.884 -13.139,13.139l0,575.219c0,7.255 5.882,13.139 13.139,13.139c7.257,0 13.139,-5.884 13.139,-13.139l0,-575.219c-0.001,-7.255 -5.883,-13.139 -13.139,-13.139z" fill="#515A5A" id="svg_8"/>
      <path d="m1066.277,2746.422c-7.257,0 -13.139,5.884 -13.139,13.139l0,462.6c0,7.255 5.882,13.139 13.139,13.139c7.257,0 13.139,-5.884 13.139,-13.139l0,-462.6c0,-7.255 -5.882,-13.139 -13.139,-13.139z" fill="#515A5A" id="svg_9"/>
      <path d="m986.818,3371.692c-7.257,0 -13.139,5.884 -13.139,13.139l0,35.039c0,7.255 5.882,13.139 13.139,13.139c7.257,0 13.139,-5.884 13.139,-13.139l0,-35.039c-0.001,-7.255 -5.883,-13.139 -13.139,-13.139z" fill="#515A5A" id="svg_10"/>
      <path d="m1066.277,3267.835c-7.257,0 -13.139,5.884 -13.139,13.139l0,183.943c0,7.255 5.882,13.139 13.139,13.139c7.257,0 13.139,-5.884 13.139,-13.139l0,-183.943c0,-7.255 -5.882,-13.139 -13.139,-13.139z" fill="#515A5A" id="svg_11"/>
     </g>
    </g>
    <g id="svg_12">
     <g id="svg_13">
      <path d="m3031.413,3502.455l0,0c21.942,0 39.729,-17.787 39.729,-39.729l0,-651.309c0,-21.942 -17.787,-39.729 -39.729,-39.729l0,0c-21.942,0 -39.729,17.787 -39.729,39.729l0,651.309c0,21.942 17.787,39.729 39.729,39.729z" fill="#C59066" id="svg_14"/>
     </g>
     <g id="svg_15">
      <path d="m3071.143,2746.422c-7.255,0 -13.139,5.884 -13.139,13.139l0,575.219c0,7.255 5.884,13.139 13.139,13.139c7.255,0 13.139,-5.884 13.139,-13.139l0,-575.219c0,-7.255 -5.884,-13.139 -13.139,-13.139z" fill="#515A5A" id="svg_16"/>
      <path d="m2991.684,2746.422c-7.255,0 -13.139,5.884 -13.139,13.139l0,462.6c0,7.255 5.884,13.139 13.139,13.139s13.139,-5.884 13.139,-13.139l0,-462.6c-0.001,-7.255 -5.885,-13.139 -13.139,-13.139z" fill="#515A5A" id="svg_17"/>
      <path d="m3071.143,3371.692c-7.255,0 -13.139,5.884 -13.139,13.139l0,35.039c0,7.255 5.884,13.139 13.139,13.139c7.255,0 13.139,-5.884 13.139,-13.139l0,-35.039c0,-7.255 -5.884,-13.139 -13.139,-13.139z" fill="#515A5A" id="svg_18"/>
      <path d="m2991.684,3267.835c-7.255,0 -13.139,5.884 -13.139,13.139l0,183.943c0,7.255 5.884,13.139 13.139,13.139s13.139,-5.884 13.139,-13.139l0,-183.943c-0.001,-7.255 -5.885,-13.139 -13.139,-13.139z" fill="#515A5A" id="svg_19"/>
     </g>
    </g>
    <g id="svg_20">
     <path d="m1807.857,2681.12l215.819,0l215.819,0c-113.305,-16.186 -134.887,-355.873 -134.887,-355.873l-80.932,0l-80.932,0c0,0 -21.582,339.687 -134.887,355.873z" fill="#E4E7E7" id="svg_21"/>
     <path d="m2243.212,2655.107c-33.601,-4.8 -65.681,-64.489 -88.012,-163.76c-18.884,-83.947 -24.313,-166.937 -24.366,-167.766c-0.879,-13.838 -12.359,-24.612 -26.225,-24.612l-80.932,0l-80.932,0c-13.866,0 -25.345,10.774 -26.225,24.612c-0.053,0.829 -5.546,84.354 -24.488,168.305c-22.323,98.939 -54.358,158.43 -87.891,163.221c-13.651,1.95 -23.473,14.121 -22.495,27.876c0.978,13.755 12.422,24.415 26.212,24.415l215.819,0l215.819,0c13.79,0 25.234,-10.66 26.211,-24.415s-8.844,-25.926 -22.495,-27.876zm-138.604,-329.86c0,0 21.582,339.687 134.887,355.873l-215.819,0l-215.819,0c113.305,-16.186 134.887,-355.873 134.887,-355.873l80.932,0l80.932,0z" fill="#515A5A" id="svg_22"/>
    </g>
    <g id="svg_23" opacity="0.4">
     <path d="m1807.857,2681.12l215.819,0l215.819,0c-113.305,-16.186 -134.887,-355.873 -134.887,-355.873l-80.932,0l-80.932,0c0,0 -21.582,339.687 -134.887,355.873z" fill="#616B6B" id="svg_24"/>
     <path d="m2243.212,2655.107c-33.601,-4.8 -65.681,-64.489 -88.012,-163.76c-18.884,-83.947 -24.313,-166.937 -24.366,-167.766c-0.879,-13.838 -12.359,-24.612 -26.225,-24.612l-80.932,0l-80.932,0c-13.866,0 -25.345,10.774 -26.225,24.612c-0.053,0.829 -5.546,84.354 -24.488,168.305c-22.323,98.939 -54.358,158.43 -87.891,163.221c-13.651,1.95 -23.473,14.121 -22.495,27.876c0.978,13.755 12.422,24.415 26.212,24.415l215.819,0l215.819,0c13.79,0 25.234,-10.66 26.211,-24.415s-8.844,-25.926 -22.495,-27.876zm-138.604,-329.86c0,0 21.582,339.687 134.887,355.873l-215.819,0l-215.819,0c113.305,-16.186 134.887,-355.873 134.887,-355.873l80.932,0l80.932,0z" fill="#616B6B" id="svg_25"/>
    </g>
    <path d="m2621.45,2357.244l-1195.548,0l0,91.574c0,33.81 27.409,61.219 61.219,61.219l1073.11,0c33.81,0 61.219,-27.409 61.219,-61.219l0,-91.574z" fill="#E4E7E7" id="svg_26"/>
    <path d="m2560.231,2462.733l-1073.11,0c-33.81,0 -61.219,-27.409 -61.219,-61.219l0,47.303c0,33.81 27.409,61.219 61.219,61.219l1073.11,0c33.81,0 61.219,-27.409 61.219,-61.219l0,-47.303c0,33.811 -27.409,61.219 -61.219,61.219z" fill="#616B6B" id="svg_27" opacity="0.4"/>
    <path d="m2621.45,2330.966l-1195.548,0c-14.513,0 -26.278,11.765 -26.278,26.278l0,91.574c0,48.246 39.251,87.497 87.497,87.497l1073.11,0c48.246,0 87.496,-39.251 87.496,-87.497l0,-91.574c0,-14.513 -11.765,-26.278 -26.277,-26.278zm-61.219,179.07l-1073.11,0c-33.81,0 -61.219,-27.409 -61.219,-61.219l0,-91.574l1195.548,0l0,91.574c0,33.811 -27.409,61.219 -61.219,61.219z" fill="#515A5A" id="svg_28"/>
    <g id="svg_29">
     <path d="m2560.231,1599.218l-1073.11,0c-33.81,0 -61.219,27.409 -61.219,61.219l0,696.807l1195.548,0l0,-696.807c0,-33.81 -27.409,-61.219 -61.219,-61.219z" fill="#515A5A" id="svg_30"/>
     <path d="m2560.231,1572.94l-1073.11,0c-48.246,0 -87.497,39.251 -87.497,87.497l0,696.807c0,14.513 11.765,26.278 26.278,26.278l1195.548,0c14.513,0 26.278,-11.765 26.278,-26.278l0,-696.807c-0.001,-48.246 -39.251,-87.497 -87.497,-87.497zm61.219,784.304l-1195.548,0l0,-696.807c0,-33.81 27.409,-61.219 61.219,-61.219l1073.11,0c33.81,0 61.219,27.409 61.219,61.219l0,696.807z" fill="#515A5A" id="svg_31"/>
    </g>
    <g id="svg_32">
     <rect fill="#FFFFFF" height="693.4" id="svg_33" width="1116.864" x="1465.244" y="1639.83"/>
    </g>
    <g id="svg_34">
     <circle cx="2023.676" cy="2450.26" fill="#515A5A" id="svg_35" r="27.64"/>
    </g>
    <g id="svg_36">
     <g id="svg_37">
      <path d="m1538.396,2248.672c0,10.749 8.714,19.464 19.464,19.464l752.095,0c10.75,0 19.464,-8.714 19.464,-19.464l0,-487.49l-791.022,0l0,487.49l-0.001,0z" fill="#525B5A" id="svg_38"/>
      <path d="m2329.418,1734.904l-791.022,0c-14.513,0 -26.278,11.765 -26.278,26.278l0,487.49c0,25.222 20.52,45.741 45.741,45.741l752.095,0c25.222,0 45.741,-20.519 45.741,-45.741l0,-487.49c0,-14.513 -11.765,-26.278 -26.277,-26.278zm0,513.768c0,10.749 -8.714,19.464 -19.464,19.464l-752.095,0c-10.749,0 -19.464,-8.714 -19.464,-19.464l0,-487.49l791.022,0l0,487.49l0.001,0z" fill="#616B6B" id="svg_39"/>
     </g>
     <g id="svg_40">
      <path d="m2329.418,1711.968c0,-10.75 -8.714,-19.464 -19.464,-19.464l-752.095,0c-10.749,0 -19.464,8.714 -19.464,19.464l0,49.214l791.022,0l0,-49.214l0.001,0z" fill="#F2F4F4" id="svg_41"/>
      <path d="m2309.954,1666.227l-752.095,0c-25.222,0 -45.741,20.519 -45.741,45.741l0,49.214c0,14.513 11.765,26.278 26.278,26.278l791.022,0c14.513,0 26.278,-11.765 26.278,-26.278l0,-49.214c-0.001,-25.222 -20.52,-45.741 -45.742,-45.741zm-771.558,45.741c0,-10.75 8.714,-19.464 19.464,-19.464l752.095,0c10.75,0 19.464,8.714 19.464,19.464l0,49.214l-791.022,0l0,-49.214l-0.001,0z" fill="#616B6B" id="svg_42"/>
     </g>
     <g id="svg_43">
      <ellipse cx="1585.012" cy="1726.844" fill="#EF5451" id="svg_44" rx="13.111" ry="13.111" transform="matrix(0.1602 -0.9871 0.9871 0.1602 -373.4244 3014.7791)"/>
     </g>
     <g id="svg_45">
      <ellipse cx="1628.715" cy="1726.844" fill="#FFED58" id="svg_46" rx="13.111" ry="13.111" transform="matrix(0.2298 -0.9732 0.9732 0.2298 -426.1364 2915.24)"/>
     </g>
     <g id="svg_47">
      <ellipse cx="1672.418" cy="1726.844" fill="#66BB6A" id="svg_48" rx="13.111" ry="13.111" transform="matrix(0.7071 -0.7071 0.7071 0.7071 -731.2228 1688.3589)"/>
     </g>
     <g id="svg_49">
      <g id="svg_50">
       <path d="m1719.909,1856.084l-109.626,0c-5.309,0 -9.613,-4.304 -9.613,-9.613l0,0c0,-5.309 4.304,-9.613 9.613,-9.613l109.626,0c5.309,0 9.613,4.304 9.613,9.613l0,0c0,5.309 -4.304,9.613 -9.613,9.613z" fill="#F09389" id="svg_51"/>
      </g>
      <g id="svg_52">
       <path d="m1700.432,1914.834l-90.148,0c-5.309,0 -9.613,-4.304 -9.613,-9.613l0,0c0,-5.309 4.304,-9.613 9.613,-9.613l90.148,0c5.309,0 9.613,4.304 9.613,9.613l0,0c-0.001,5.309 -4.304,9.613 -9.613,9.613z" fill="#AED6F1" id="svg_53"/>
      </g>
      <g id="svg_54">
       <path d="m1796.321,1970.666l-186.037,0c-5.309,0 -9.613,-4.304 -9.613,-9.613l0,0c0,-5.309 4.304,-9.613 9.613,-9.613l186.037,0c5.309,0 9.613,4.304 9.613,9.613l0,0c0,5.309 -4.304,9.613 -9.613,9.613z" fill="#5EABDE" id="svg_55"/>
      </g>
      <g id="svg_56">
       <path d="m1761.861,2076.575l-151.577,0c-5.309,0 -9.613,-4.304 -9.613,-9.613l0,0c0,-5.309 4.304,-9.613 9.613,-9.613l151.577,0c5.309,0 9.613,4.304 9.613,9.613l0,0c0,5.309 -4.304,9.613 -9.613,9.613z" fill="#8CCCA3" id="svg_57"/>
      </g>
      <g id="svg_58">
       <path d="m1665.971,2129.53l-55.688,0c-5.309,0 -9.613,-4.304 -9.613,-9.613l0,0c0,-5.309 4.304,-9.613 9.613,-9.613l55.688,0c5.309,0 9.613,4.304 9.613,9.613l0,0c0,5.309 -4.304,9.613 -9.613,9.613z" fill="#F09389" id="svg_59"/>
      </g>
      <g id="svg_60">
       <path d="m1740.885,2182.484l-130.601,0c-5.309,0 -9.613,-4.304 -9.613,-9.613l0,0c0,-5.309 4.304,-9.613 9.613,-9.613l130.601,0c5.309,0 9.613,4.304 9.613,9.613l0,0c0,5.309 -4.304,9.613 -9.613,9.613z" fill="#5EABDE" id="svg_61"/>
      </g>
      <g id="svg_62">
       <path d="m1682.452,2235.439l-72.169,0c-5.309,0 -9.613,-4.304 -9.613,-9.613l0,0c0,-5.309 4.304,-9.613 9.613,-9.613l72.169,0c5.309,0 9.613,4.304 9.613,9.613l0,0c0,5.309 -4.304,9.613 -9.613,9.613z" fill="#C29BC7" id="svg_63"/>
      </g>
      <g id="svg_64">
       <path d="m1744.63,2235.439l-26.471,0c-5.309,0 -9.613,-4.304 -9.613,-9.613l0,0c0,-5.309 4.304,-9.613 9.613,-9.613l26.471,0c5.309,0 9.613,4.304 9.613,9.613l0,0c0,5.309 -4.303,9.613 -9.613,9.613z" fill="#5EABDE" id="svg_65"/>
      </g>
      <g id="svg_66">
       <path d="m1844.266,2182.484l-63.179,0c-5.309,0 -9.613,-4.304 -9.613,-9.613l0,0c0,-5.309 4.304,-9.613 9.613,-9.613l63.179,0c5.309,0 9.613,4.304 9.613,9.613l0,0c0,5.309 -4.304,9.613 -9.613,9.613z" fill="#F09389" id="svg_67"/>
      </g>
      <g id="svg_68">
       <path d="m1806.809,2129.53l-105.131,0c-5.309,0 -9.613,-4.304 -9.613,-9.613l0,0c0,-5.309 4.304,-9.613 9.613,-9.613l105.131,0c5.309,0 9.613,4.304 9.613,9.613l0,0c0,5.309 -4.304,9.613 -9.613,9.613z" fill="#B88EC0" id="svg_69"/>
      </g>
      <g id="svg_70">
       <path d="m1914.684,2076.575l-114.12,0c-5.309,0 -9.613,-4.304 -9.613,-9.613l0,0c0,-5.309 4.304,-9.613 9.613,-9.613l114.12,0c5.309,0 9.613,4.304 9.613,9.613l0,0c0,5.309 -4.303,9.613 -9.613,9.613z" fill="#AED6F1" id="svg_71"/>
      </g>
      <g id="svg_72">
       <path d="m1866.74,2023.62l-256.456,0c-5.309,0 -9.613,-4.304 -9.613,-9.613l0,0c0,-5.309 4.304,-9.613 9.613,-9.613l256.456,0c5.309,0 9.613,4.304 9.613,9.613l0,0c0,5.309 -4.304,9.613 -9.613,9.613z" fill="#F09389" id="svg_73"/>
      </g>
      <g id="svg_74">
       <path d="m1899.702,1914.834l-166.56,0c-5.309,0 -9.613,-4.304 -9.613,-9.613l0,0c0,-5.309 4.304,-9.613 9.613,-9.613l166.56,0c5.309,0 9.613,4.304 9.613,9.613l0,0c0,5.309 -4.304,9.613 -9.613,9.613z" fill="#B88EC0" id="svg_75"/>
      </g>
      <g id="svg_76">
       <path d="m2007.577,1914.834l-73.667,0c-5.309,0 -9.613,-4.304 -9.613,-9.613l0,0c0,-5.309 4.304,-9.613 9.613,-9.613l73.667,0c5.309,0 9.613,4.304 9.613,9.613l0,0c0,5.309 -4.304,9.613 -9.613,9.613z" fill="#F09389" id="svg_77"/>
      </g>
      <g id="svg_78">
       <path d="m1796.321,1856.084l-36.21,0c-5.309,0 -9.613,-4.304 -9.613,-9.613l0,0c0,-5.309 4.304,-9.613 9.613,-9.613l36.21,0c5.309,0 9.613,4.304 9.613,9.613l0,0c0,5.309 -4.304,9.613 -9.613,9.613z" fill="#C29BC7" id="svg_79"/>
      </g>
      <g id="svg_80">
       <path d="m1871.984,1970.666l-36.21,0c-5.309,0 -9.613,-4.304 -9.613,-9.613l0,0c0,-5.309 4.304,-9.613 9.613,-9.613l36.21,0c5.309,0 9.613,4.304 9.613,9.613l0,0c0,5.309 -4.304,9.613 -9.613,9.613z" fill="#8CCCA3" id="svg_81"/>
      </g>
      <g id="svg_82">
       <path d="m1963.378,2023.62l-57.186,0c-5.309,0 -9.613,-4.304 -9.613,-9.613l0,0c0,-5.309 4.304,-9.613 9.613,-9.613l57.186,0c5.309,0 9.613,4.304 9.613,9.613l0,0c0,5.309 -4.304,9.613 -9.613,9.613z" fill="#B88EC0" id="svg_83"/>
      </g>
     </g>
    </g>
    <g id="svg_84">
     <polygon fill="#515A5A" id="svg_85" points="2467.152,2060.381 2418.644,2043.695 2435.33,2092.203 2452.015,2140.709      2459.714,2116.588 2467.413,2092.465 2491.536,2084.766 2515.659,2077.066    "/>
    </g>
    <g id="svg_86">
     <path d="m2464.785,2658.242l-882.219,0c-11.733,0 -21.244,9.511 -21.244,21.244c0,11.733 9.511,21.244 21.244,21.244l882.219,0c11.733,0 21.244,-9.511 21.244,-21.244c0,-11.732 -9.511,-21.244 -21.244,-21.244z" fill="#F2F4F4" id="svg_87"/>
     <path d="m2464.785,2631.965l-882.219,0c-26.203,0 -47.521,21.318 -47.521,47.521s21.318,47.521 47.521,47.521l882.219,0c26.203,0 47.521,-21.318 47.521,-47.521s-21.317,-47.521 -47.521,-47.521zm0,68.765l-882.219,0c-11.733,0 -21.244,-9.511 -21.244,-21.244c0,-11.732 9.511,-21.244 21.244,-21.244l882.219,0c11.733,0 21.244,9.511 21.244,21.244c0,11.733 -9.511,21.244 -21.244,21.244z" fill="#515A5A" id="svg_88"/>
    </g>
    <path d="m3403.051,2700.73l-2748.141,0c-16.245,0 -29.415,13.17 -29.415,29.415c0,16.245 13.169,29.414 29.415,29.414l2748.141,0c16.245,0 29.415,-13.169 29.415,-29.414c0,-16.246 -13.17,-29.415 -29.415,-29.415z" fill="#EFB27A" id="svg_89"/>
    <path d="m3403.051,2730.276l-2748.141,0c-10.909,0 -20.409,-5.953 -25.487,-14.773c-2.485,4.315 -3.928,9.305 -3.928,14.642c0,16.245 13.169,29.414 29.415,29.414l2748.141,0c16.245,0 29.415,-13.169 29.415,-29.414c0,-5.337 -1.443,-10.327 -3.928,-14.642c-5.079,8.82 -14.579,14.773 -25.487,14.773z" fill="#616B6B" id="svg_90" opacity="0.4"/>
    <path d="m3403.051,2674.452l-2748.141,0c-30.709,0 -55.692,24.984 -55.692,55.693c0,30.708 24.983,55.692 55.692,55.692l2748.141,0c30.709,0 55.692,-24.983 55.692,-55.692c0,-30.709 -24.983,-55.693 -55.692,-55.693zm0,85.107l-2748.141,0c-16.245,0 -29.415,-13.169 -29.415,-29.414c0,-16.246 13.169,-29.415 29.415,-29.415l2748.141,0c16.245,0 29.415,13.17 29.415,29.415c0,16.245 -13.17,29.414 -29.415,29.414z" fill="#515A5A" id="svg_91"/>
    <path d="m851.928,2650.242c-32.571,0 -59.069,-25.478 -59.069,-56.794s26.498,-56.794 59.069,-56.794l370.243,0l0.019,0c4.009,0 7.792,0.924 11.19,2.529c6.436,-10.139 14.563,-19.238 24.11,-26.871l-402.488,0c-48.151,0 -87.185,36.326 -87.185,81.136l0,0c0,44.81 39.034,81.136 87.185,81.136l402.488,0c-9.552,-7.637 -17.681,-16.74 -24.119,-26.885c-3.46,1.633 -7.267,2.543 -11.2,2.543l-370.243,0z" fill="#F09389" id="svg_92"/>
    <path d="m1273.9,2654.06c-12.765,-10.207 -21.996,-23.378 -26.697,-38.091c2.553,7.99 1.136,16.719 -3.811,23.493c-2.628,3.599 -6.099,6.386 -10.021,8.236c6.438,10.144 14.568,19.248 24.119,26.885l-402.488,0c-48.151,0 -87.185,-36.326 -87.185,-81.136l0,0c0,-44.81 39.034,-81.136 87.185,-81.136l402.488,0c-9.547,7.634 -17.674,16.732 -24.11,26.871c8.905,4.206 15.078,13.244 15.078,23.749c0,2.889 -0.5,5.655 -1.362,8.255c0.03,-0.09 0.078,-0.169 0.106,-0.26c4.7,-14.713 13.932,-27.885 26.697,-38.091c8.718,-6.97 12.081,-18.686 8.388,-29.219c-3.693,-10.532 -13.636,-17.583 -24.797,-17.583l-402.488,0c-62.563,0 -113.462,48.186 -113.462,107.414c0,59.228 50.899,107.414 113.462,107.414l402.488,0c11.161,0 21.104,-7.051 24.797,-17.583c3.693,-10.532 0.33,-22.248 -8.387,-29.218z" fill="#515A5A" id="svg_93"/>
    <path d="m1217.397,2593.448c0,-10.607 1.684,-20.844 4.774,-30.517l-370.243,0c-18.11,0 -32.792,13.663 -32.792,30.517s14.681,30.517 32.792,30.517l370.243,0c-3.09,-9.674 -4.774,-19.911 -4.774,-30.517zm-86.357,0.452c0,4.146 -3.362,7.508 -7.508,7.508l-262.923,0c-4.146,0 -7.508,-3.362 -7.508,-7.508s3.362,-7.508 7.508,-7.508l262.923,0c4.146,0 7.508,3.361 7.508,7.508zm59.081,-0.902c0,4.146 -3.362,7.508 -7.508,7.508l-30.486,0c-4.146,0 -7.508,-3.362 -7.508,-7.508s3.362,-7.508 7.508,-7.508l30.486,0c4.146,0 7.508,3.362 7.508,7.508z" fill="#FFFFFF" id="svg_94"/>
    <path d="m1233.38,2539.182c-3.398,-1.605 -7.181,-2.529 -11.19,-2.529l-0.019,0l-370.243,0c-32.571,0 -59.069,25.478 -59.069,56.794s26.498,56.794 59.069,56.794l370.243,0c3.932,0 7.74,-0.91 11.2,-2.543c3.922,-1.85 7.393,-4.637 10.021,-8.236c4.948,-6.774 6.364,-15.503 3.811,-23.493l0,-0.001c-2.341,-7.328 -3.528,-14.905 -3.528,-22.521c0,-7.363 1.11,-14.691 3.299,-21.792c0.053,-0.151 0.072,-0.317 0.122,-0.469c0.862,-2.6 1.362,-5.366 1.362,-8.255c0,-10.504 -6.173,-19.543 -15.078,-23.749zm-414.244,54.266c0,-16.854 14.681,-30.517 32.792,-30.517l370.243,0c-3.09,9.673 -4.774,19.91 -4.774,30.517s1.684,20.844 4.774,30.517l-370.243,0c-18.11,-0.001 -32.792,-13.664 -32.792,-30.517z" fill="#515A5A" id="svg_95"/>
    <g id="svg_96" opacity="0.3">
     <path d="m1217.611,2623.964l4.56,0c-1.304,-4.083 -2.297,-8.287 -3.08,-12.557c-0.753,4.111 -1.249,8.299 -1.48,12.557z" fill="#515A5A" id="svg_97"/>
     <path d="m851.928,2598.85l365.683,0c-0.097,-1.795 -0.213,-3.585 -0.213,-5.403c0,-10.607 1.684,-20.844 4.774,-30.517l-370.244,0c-18.11,0 -32.792,13.663 -32.792,30.517c0,6.723 2.364,12.917 6.321,17.959c5.965,-7.598 15.584,-12.556 26.471,-12.556z" fill="#515A5A" id="svg_98"/>
    </g>
    <path d="m1123.532,2586.392l-262.923,0c-4.146,0 -7.508,3.362 -7.508,7.508s3.362,7.508 7.508,7.508l262.923,0c4.146,0 7.508,-3.362 7.508,-7.508s-3.362,-7.508 -7.508,-7.508z" fill="#515A5A" id="svg_99"/>
    <path d="m1182.613,2585.49l-30.486,0c-4.146,0 -7.508,3.362 -7.508,7.508s3.362,7.508 7.508,7.508l30.486,0c4.146,0 7.508,-3.362 7.508,-7.508s-3.362,-7.508 -7.508,-7.508z" fill="#515A5A" id="svg_100"/>
    <path d="m959.181,2108.379l0,162.751l35.682,0l0,-76.962c0,-23.166 13.15,-43.292 32.36,-53.386l0,-32.402c0,-18.79 -15.232,-34.021 -34.021,-34.021c-18.79,-0.002 -34.021,15.23 -34.021,34.02z" fill="#AED480" id="svg_101"/>
    <path d="m993.202,2074.357c-3.26,0 -6.401,0.486 -9.385,1.341c14.22,4.077 24.636,17.15 24.636,32.68l0,32.402c-19.211,10.095 -32.36,30.22 -32.36,53.386l0,76.962l18.77,0l0,-76.962c0,-23.166 13.15,-43.292 32.36,-53.386l0,-32.402c0,-18.789 -15.232,-34.021 -34.021,-34.021z" fill="#515A5A" id="svg_102" opacity="0.3"/>
    <path d="m1055.162,2160.146c-18.789,0 -34.021,15.232 -34.021,34.021l0,76.962l68.043,0l0,-76.962c-0.001,-18.789 -15.232,-34.021 -34.022,-34.021z" fill="#AED480" id="svg_103"/>
    <path d="m1055.162,2160.146c-3.388,0 -6.653,0.511 -9.741,1.433c14.039,4.191 24.28,17.187 24.28,32.588l0,76.962l19.482,0l0,-76.962c0,-18.789 -15.231,-34.021 -34.021,-34.021z" fill="#515A5A" id="svg_104" opacity="0.3"/>
    <polygon fill="#F2F4F4" id="svg_105" points="1097.176,2486.034 1112.012,2297.407 930.269,2297.407 945.105,2486.034   "/>
    <polygon fill="#515A5A" id="svg_106" opacity="0.3" points="1077.69,2297.407 1062.854,2486.034 1097.176,2486.034 1112.012,2297.407       "/>
    <path d="m1131.308,2279.569c-4.185,-4.527 -9.806,-7.384 -15.847,-8.185l0,-77.217c0,-33.249 -27.05,-60.299 -60.299,-60.299c-0.561,0 -1.104,0.069 -1.661,0.084l0,-25.574c0,-33.249 -27.05,-60.299 -60.299,-60.299c-33.249,0 -60.299,27.05 -60.299,60.299l0,162.751l-2.634,0c-7.327,0 -14.322,3.06 -19.296,8.44c-4.974,5.381 -7.475,12.594 -6.901,19.898l14.836,188.627c1.075,13.672 12.483,24.217 26.197,24.217l152.071,0c13.714,0 25.121,-10.545 26.197,-24.217l14.836,-188.627c0.575,-7.304 -1.927,-14.517 -6.901,-19.898zm-104.085,-171.19l0,32.402c-19.21,10.095 -32.36,30.22 -32.36,53.386l0,76.962l-35.682,0l0,-162.751c0,-18.79 15.232,-34.021 34.021,-34.021c18.789,0 34.021,15.232 34.021,34.022zm61.96,162.75l-68.043,0l0,-76.962c0,-18.789 15.232,-34.021 34.021,-34.021c18.79,0 34.021,15.232 34.021,34.021l0,76.962l0.001,0zm22.829,26.278l-14.836,188.627l-152.071,0l-14.836,-188.627l181.743,0z" fill="#515A5A" id="svg_107"/>
    <path d="m2959.958,2670.003c-6.922,-29.048 -40.737,-51.778 -83.188,-55.732l0,22.751c0,7.255 -5.884,13.139 -13.139,13.139s-13.139,-5.884 -13.139,-13.139l0,-22.751c-42.452,3.953 -76.267,26.684 -83.189,55.732l192.655,0z" fill="#F2F4F4" id="svg_116"/>
    <path d="m2850.493,2618.869l0,-4.598c-4.166,0.388 -8.218,1.007 -12.2,1.745c4.182,0.775 8.259,1.719 12.2,2.853z" fill="#CECECD" id="svg_117"/>
    <path d="m2876.77,2614.271l0,15.827c16.871,10.068 28.726,24.028 32.51,39.905l50.678,0c-6.922,-29.048 -40.737,-51.778 -83.188,-55.732z" fill="#616B6B" id="svg_118" opacity="0.4"/>
    <path d="m2985.52,2663.912c-10.576,-44.381 -61.838,-76.593 -121.889,-76.593c-60.051,0 -111.313,32.212 -121.889,76.593c-1.864,7.822 -0.044,16.067 4.939,22.377c4.983,6.31 12.582,9.992 20.623,9.992l192.655,0c8.041,0 15.639,-3.682 20.623,-9.992c4.982,-6.311 6.802,-14.556 4.938,-22.377zm-135.027,-49.641l0,22.751c0,7.255 5.884,13.139 13.139,13.139s13.139,-5.884 13.139,-13.139l0,-22.751c42.451,3.954 76.266,26.684 83.188,55.732l-192.655,0c6.922,-29.048 40.737,-51.778 83.189,-55.732z" fill="#515A5A" id="svg_119"/>
    <g id="svg_120" opacity="0.5">
     <g id="svg_121">
      <g id="svg_122">
       <path d="m2113.016,3114.156l-88.335,0c-20.733,0 -37.539,16.807 -37.539,37.539l0,88.335c0,20.732 16.807,37.54 37.539,37.54l88.335,0c20.733,0 37.539,-16.807 37.539,-37.54l0,-88.335c0,-20.733 -16.807,-37.539 -37.539,-37.539z" fill="#F2F4F4" id="svg_123"/>
       <path d="m2113.016,3087.878l-88.335,0c-35.189,0 -63.817,28.628 -63.817,63.817l0,88.335c0,35.189 28.628,63.817 63.817,63.817l88.335,0c35.189,0 63.817,-28.628 63.817,-63.817l0,-88.335c0,-35.189 -28.628,-63.817 -63.817,-63.817zm37.539,152.152c0,20.732 -16.807,37.54 -37.539,37.54l-88.335,0c-20.733,0 -37.539,-16.807 -37.539,-37.54l0,-88.335c0,-20.732 16.807,-37.539 37.539,-37.539l88.335,0c20.733,0 37.539,16.807 37.539,37.539l0,88.335z" fill="#515A5A" id="svg_124"/>
      </g>
      <g id="svg_125">
       <path d="m2081.68,3160.507l-25.665,0c-12.439,0 -22.524,10.084 -22.524,22.524l0,25.664c0,12.44 10.084,22.524 22.524,22.524l25.665,0c12.439,0 22.524,-10.084 22.524,-22.524l0,-25.664c0,-12.44 -10.084,-22.524 -22.524,-22.524z" fill="#C6C5C5" id="svg_126"/>
       <path d="m2081.68,3134.229l-25.665,0c-26.909,0 -48.801,21.892 -48.801,48.801l0,25.664c0,26.909 21.892,48.801 48.801,48.801l25.665,0c26.909,0 48.801,-21.892 48.801,-48.801l0,-25.664c0.001,-26.909 -21.892,-48.801 -48.801,-48.801zm22.524,74.466c0,12.44 -10.084,22.524 -22.524,22.524l-25.665,0c-12.439,0 -22.524,-10.084 -22.524,-22.524l0,-25.664c0,-12.439 10.084,-22.524 22.524,-22.524l25.665,0c12.439,0 22.524,10.084 22.524,22.524l0,25.664z" fill="#515A5A" id="svg_127"/>
      </g>
      <g id="svg_128">
       <path d="m2377.748,3114.156l-88.335,0c-20.732,0 -37.539,16.807 -37.539,37.539l0,88.335c0,20.732 16.807,37.54 37.539,37.54l88.335,0c20.732,0 37.539,-16.807 37.539,-37.54l0,-88.335c0,-20.733 -16.807,-37.539 -37.539,-37.539z" fill="#F2F4F4" id="svg_129"/>
       <path d="m2377.748,3087.878l-88.335,0c-35.189,0 -63.817,28.628 -63.817,63.817l0,88.335c0,35.189 28.628,63.817 63.817,63.817l88.335,0c35.189,0 63.817,-28.628 63.817,-63.817l0,-88.335c0,-35.189 -28.628,-63.817 -63.817,-63.817zm37.539,152.152c0,20.732 -16.807,37.54 -37.539,37.54l-88.335,0c-20.732,0 -37.539,-16.807 -37.539,-37.54l0,-88.335c0,-20.732 16.807,-37.539 37.539,-37.539l88.335,0c20.732,0 37.539,16.807 37.539,37.539l0,88.335z" fill="#515A5A" id="svg_130"/>
      </g>
      <g id="svg_131">
       <path d="m2346.713,3246.534l-26.265,0c-20.732,0 -37.539,-16.807 -37.539,-37.539l0,-26.265c0,-20.732 16.807,-37.539 37.539,-37.539l26.265,0c20.733,0 37.54,16.807 37.54,37.539l0,26.265c-0.001,20.733 -16.808,37.539 -37.54,37.539z" fill="#515A5A" id="svg_132"/>
      </g>
      <g id="svg_133">
       <path d="m2333.581,3158.329c-7.255,0 -13.139,-5.884 -13.139,-13.139l0,-102.379c0,-19.789 -16.097,-35.886 -35.886,-35.886l-232.829,0c-34.277,0 -62.164,-27.887 -62.164,-62.164l0,-164.502c0,-7.255 5.882,-13.139 13.139,-13.139s13.139,5.884 13.139,13.139l0,164.502c0,19.789 16.099,35.886 35.886,35.886l232.829,0c34.277,0 62.164,27.887 62.164,62.164l0,102.379c0,7.255 -5.884,13.139 -13.139,13.139z" fill="#515A5A" id="svg_134"/>
      </g>
     </g>
     <g id="svg_135">
      <path d="m3519.615,1423.228l-231.722,0l0,-95.495c0,-7.257 -5.884,-13.139 -13.139,-13.139s-13.139,5.882 -13.139,13.139l0,95.495l-207.207,0c-7.255,0 -13.139,5.882 -13.139,13.139c0,7.257 5.884,13.139 13.139,13.139l83.818,0l0,82.444l-66.42,0c-7.255,0 -13.139,5.882 -13.139,13.139c0,7.257 5.884,13.139 13.139,13.139l187.257,0l0,82.444l-130.831,0c-7.255,0 -13.139,5.882 -13.139,13.139s5.884,13.139 13.139,13.139l291.074,0c7.255,0 13.139,-5.882 13.139,-13.139s-5.884,-13.139 -13.139,-13.139l-133.965,0l0,-82.444l204.656,0c7.255,0 13.139,-5.882 13.139,-13.139c0,-7.257 -5.884,-13.139 -13.139,-13.139l-68.726,0l0,-82.444l98.343,0c7.255,0 13.139,-5.882 13.139,-13.139c0.001,-7.257 -5.883,-13.139 -13.138,-13.139zm-355.111,108.721l0,-82.444l109.377,0c0.294,0.02 0.574,0.088 0.873,0.088c0.299,0 0.579,-0.068 0.873,-0.088l119.367,0l0,82.444l-230.49,0z" fill="#515A5A" id="svg_136"/>
      <path d="m945.594,765.13l-231.726,0l0,-95.495c0,-7.257 -5.882,-13.139 -13.139,-13.139c-7.257,0 -13.139,5.882 -13.139,13.139l0,95.495l-207.205,0c-7.257,0 -13.139,5.882 -13.139,13.139c0,7.257 5.882,13.139 13.139,13.139l83.817,0l0,82.442l-66.418,0c-7.257,0 -13.139,5.882 -13.139,13.139c0,7.257 5.882,13.139 13.139,13.139l187.257,0l0,82.444l-130.833,0c-7.257,0 -13.139,5.882 -13.139,13.139c0,7.257 5.882,13.139 13.139,13.139l291.075,0c7.257,0 13.139,-5.882 13.139,-13.139c0,-7.257 -5.882,-13.139 -13.139,-13.139l-133.964,0l0,-82.444l204.658,0c7.257,0 13.139,-5.882 13.139,-13.139c0,-7.257 -5.882,-13.139 -13.139,-13.139l-68.727,0l0,-82.442l98.345,0c7.257,0 13.139,-5.882 13.139,-13.139c-0.002,-7.257 -5.883,-13.139 -13.14,-13.139zm-355.115,108.719l0,-82.442l109.377,0c0.294,0.02 0.574,0.088 0.873,0.088s0.579,-0.068 0.873,-0.088l119.369,0l0,82.442l-230.492,0z" fill="#515A5A" id="svg_137"/>
      <path d="m1665,2991.088c7.257,0 13.139,-5.884 13.139,-13.139s-5.882,-13.139 -13.139,-13.139l-291.123,0c-7.257,0 -13.139,5.884 -13.139,13.139s5.882,13.139 13.139,13.139l108.069,0l0,64.825l-108.069,0c-7.257,0 -13.139,5.884 -13.139,13.139s5.882,13.139 13.139,13.139l43.493,0l0,66.46l-107.216,0c-7.257,0 -13.139,5.884 -13.139,13.139c0,7.255 5.882,13.139 13.139,13.139l354.846,0c7.257,0 13.139,-5.884 13.139,-13.139c0,-7.255 -5.882,-13.139 -13.139,-13.139l-90.945,0l0,-66.46l48.462,0c7.257,0 13.139,-5.884 13.139,-13.139s-5.882,-13.139 -13.139,-13.139l-114.294,0l0,-64.825l156.777,0zm-221.353,157.563l0,-66.46l104.13,0l0,66.46l-104.13,0z" fill="#515A5A" id="svg_138"/>
     </g>
     <g id="svg_139">
      <g id="svg_140">
       <path d="m3287.013,1189.53c0,-166.395 -134.89,-301.286 -301.286,-301.286c-74.956,0 -143.463,27.435 -196.183,72.729c-43.298,37.199 -75.9,86.452 -92.589,142.593c-8.1,27.248 -12.514,56.085 -12.514,85.964c0,29.879 4.414,58.715 12.514,85.964c16.689,56.141 49.292,105.393 92.589,142.593c52.719,45.294 121.227,72.729 196.183,72.729c166.395,0 301.286,-134.891 301.286,-301.286z" fill="#85C0E8" id="svg_141"/>
       <path d="m2985.727,861.966c-78.202,0 -153.956,28.083 -213.307,79.075c-47.941,41.188 -82.746,94.799 -100.653,155.037c-9.027,30.365 -13.604,61.807 -13.604,93.452s4.577,63.087 13.604,93.452c17.906,60.236 52.711,113.848 100.653,155.037c59.352,50.993 135.106,79.075 213.307,79.075c180.619,0 327.564,-146.944 327.564,-327.564s-146.945,-327.564 -327.564,-327.564zm-196.183,556.12c-43.298,-37.2 -75.9,-86.452 -92.589,-142.593c-8.1,-27.249 -12.514,-56.084 -12.514,-85.964c0,-29.879 4.414,-58.715 12.514,-85.964c16.689,-56.141 49.292,-105.394 92.589,-142.593c52.719,-45.294 121.227,-72.729 196.183,-72.729c166.396,0 301.286,134.891 301.286,301.286c0,166.396 -134.89,301.286 -301.286,301.286c-74.957,0.001 -143.464,-27.435 -196.183,-72.729z" fill="#515A5A" id="svg_142"/>
      </g>
      <path d="m3287.013,1189.53c0,-163.388 -130.082,-296.305 -292.319,-301.059c116.647,50.184 198.535,166.232 198.535,301.059s-81.888,250.875 -198.535,301.059c162.237,-4.755 292.319,-137.671 292.319,-301.059z" fill="#515A5A" id="svg_143" opacity="0.3"/>
      <g id="svg_144">
       <path d="m2985.727,948.89c-59.868,0 -114.585,21.913 -156.693,58.089c-34.582,29.711 -60.622,69.05 -73.951,113.89c-6.47,21.764 -9.995,44.795 -9.995,68.66c0,23.865 3.526,46.896 9.995,68.66c13.33,44.84 39.369,84.179 73.951,113.89c42.107,36.177 96.825,58.089 156.693,58.089c132.902,0 240.64,-107.738 240.64,-240.64c-0.001,-132.9 -107.739,-240.638 -240.64,-240.638z" fill="#FFFFFF" id="svg_145"/>
       <path d="m2985.727,922.612c-63.724,0 -125.454,22.884 -173.817,64.435c-39.063,33.56 -67.423,77.246 -82.016,126.334c-7.355,24.742 -11.084,50.362 -11.084,76.148s3.729,51.405 11.084,76.148c14.592,49.087 42.953,92.773 82.016,126.334c48.364,41.552 110.093,64.435 173.817,64.435c147.179,0 266.917,-119.738 266.917,-266.917s-119.739,-266.917 -266.917,-266.917zm0,507.557c-59.868,0 -114.585,-21.913 -156.693,-58.089c-34.582,-29.712 -60.622,-69.05 -73.951,-113.89c-6.47,-21.764 -9.995,-44.795 -9.995,-68.66c0,-23.865 3.526,-46.896 9.995,-68.66c13.33,-44.84 39.369,-84.179 73.951,-113.89c42.107,-36.177 96.825,-58.089 156.693,-58.089c132.902,0 240.64,107.738 240.64,240.64c-0.001,132.9 -107.739,240.638 -240.64,240.638z" fill="#515A5A" id="svg_146"/>
      </g>
      <path d="m3226.366,1189.53c0,-91.033 -50.56,-170.243 -125.12,-211.126c63.131,48.861 103.89,125.302 103.89,211.126c0,85.825 -40.76,162.266 -103.891,211.127c74.561,-40.884 125.121,-120.093 125.121,-211.127z" fill="#616B6B" id="svg_147" opacity="0.4"/>
      <g id="svg_148">
       <circle cx="2987.726" cy="1189.53" fill="#515A5A" id="svg_149" r="39.79"/>
      </g>
      <g id="svg_150">
       <path d="m2987.724,1202.668c-3.362,0 -6.723,-1.283 -9.29,-3.847c-5.132,-5.132 -5.132,-13.45 0,-18.583l92.345,-92.346c5.132,-5.129 13.447,-5.129 18.579,0c5.132,5.132 5.132,13.45 0,18.583l-92.345,92.345c-2.565,2.565 -5.927,3.848 -9.289,3.848z" fill="#515A5A" id="svg_151"/>
      </g>
      <g id="svg_152">
       <path d="m2987.724,1359.917c-5.184,0 -9.385,-4.201 -9.385,-9.385l0,-144.527c0,-5.184 4.201,-9.385 9.385,-9.385c5.184,0 9.385,4.201 9.385,9.385l0,144.527c0,5.184 -4.201,9.385 -9.385,9.385z" fill="#515A5A" id="svg_153"/>
      </g>
     </g>
     <g id="svg_154">
      <rect fill="#FFFFFF" height="894.11" id="svg_155" width="755.812" x="821.276" y="381.278"/>
      <rect fill="#FFEBB1" height="808.65" id="svg_156" width="683.571" x="857.397" y="424.008"/>
      <path d="m1577.088,355l-755.812,0c-14.513,0 -26.278,11.765 -26.278,26.278l0,894.11c0,14.513 11.765,26.278 26.278,26.278l755.812,0c14.513,0 26.278,-11.765 26.278,-26.278l0,-894.11c0,-14.513 -11.765,-26.278 -26.278,-26.278zm-755.812,26.278l755.812,0l0,894.11l-755.812,0l0,-894.11z" fill="#515A5A" id="svg_157"/>
      <g id="svg_158">
       <path d="m929.225,773.217c2.511,5.182 7.849,7.851 16.013,7.851c4.868,0 9.264,-1.727 13.346,-5.024l18.999,16.015c-7.851,8.477 -18.999,12.717 -33.285,12.717c-13.346,0 -24.181,-3.924 -32.345,-11.617c-8.007,-7.851 -12.089,-17.743 -12.089,-29.518c0,-11.933 3.924,-21.823 11.775,-29.83c8.007,-8.008 17.899,-11.933 29.988,-11.933c11.933,0 21.668,3.924 29.361,11.775c7.693,7.693 11.619,17.584 11.619,29.361c0,3.453 -0.471,6.909 -1.257,10.204l-52.125,0l0,-0.001zm25.906,-18.684c-1.727,-6.28 -5.966,-9.42 -12.717,-9.42c-6.753,0 -11.306,3.14 -13.659,9.42l26.376,0z" fill="#515A5A" id="svg_159"/>
       <path d="m1052.951,724.075l29.045,0l0,78.503l-29.045,0l0,-7.066c-5.024,6.124 -12.09,9.264 -21.039,9.264c-10.519,0 -19.155,-3.924 -25.905,-11.775c-6.751,-7.851 -10.048,-17.741 -10.048,-29.674c0,-11.933 3.298,-21.823 10.048,-29.674c6.751,-7.851 15.386,-11.775 25.905,-11.775c8.949,0 16.015,3.14 21.039,9.262l0,-7.065zm-13.972,54.01c4.238,0 7.535,-1.413 10.048,-4.24c5.18,-5.653 5.18,-15.386 0,-21.039c-2.513,-2.826 -5.811,-4.24 -10.048,-4.24c-4.24,0 -7.537,1.413 -10.206,4.24c-5.024,5.653 -5.024,15.386 0,21.039c2.668,2.827 5.966,4.24 10.206,4.24z" fill="#515A5A" id="svg_160"/>
       <path d="m1154.225,751.707l-16.486,0l0,16.957c0,8.164 5.809,8.479 16.486,7.851l0,26.063c-32.814,4.553 -45.533,-5.182 -45.533,-32.343l0,-18.528l-10.989,0l0,-27.632l10.989,0l0,-13.346l29.047,-8.635l0,21.981l16.486,0l0,27.632z" fill="#515A5A" id="svg_161"/>
       <path d="m970.674,966.034c0,10.048 -4.868,17.897 -12.246,21.666c-7.38,3.769 -14.917,5.495 -23.081,5.495c-18.997,0 -31.243,-6.28 -36.738,-18.684l25.277,-11.304c2.042,5.338 5.653,8.007 11.148,8.007c3.611,0 5.338,-1.098 5.338,-3.453c0,-2.669 -5.966,-4.082 -13.346,-5.809c-10.519,-2.355 -24.65,-7.851 -24.492,-24.65c0,-8.637 3.297,-15.23 9.735,-19.941c6.593,-4.709 14.13,-7.064 22.766,-7.064c17.113,0 28.574,6.593 34.07,19.939l-24.021,8.635c-1.884,-4.396 -4.868,-6.593 -8.793,-6.593c-3.297,0 -4.867,1.098 -4.867,3.296c-0.001,8.163 39.25,-0.314 39.25,30.46z" fill="#515A5A" id="svg_162"/>
       <path d="m987.164,990.997l0,-114.614l29.047,0l0,114.614l-29.047,0z" fill="#515A5A" id="svg_163"/>
       <path d="m1062.217,961.636c2.511,5.182 7.849,7.851 16.013,7.851c4.868,0 9.264,-1.727 13.346,-5.024l18.999,16.015c-7.851,8.478 -18.999,12.717 -33.285,12.717c-13.346,0 -24.181,-3.924 -32.345,-11.617c-8.006,-7.851 -12.089,-17.743 -12.089,-29.518c0,-11.933 3.924,-21.823 11.775,-29.83c8.008,-8.008 17.899,-11.933 29.988,-11.933c11.933,0 21.668,3.924 29.361,11.775c7.693,7.693 11.619,17.584 11.619,29.361c0,3.453 -0.471,6.909 -1.257,10.204l-52.125,0l0,-0.001zm25.906,-18.683c-1.727,-6.28 -5.966,-9.42 -12.717,-9.42c-6.753,0 -11.306,3.14 -13.659,9.42l26.376,0z" fill="#515A5A" id="svg_164"/>
       <path d="m1158.311,961.636c2.511,5.182 7.849,7.851 16.013,7.851c4.868,0 9.264,-1.727 13.346,-5.024l18.999,16.015c-7.851,8.478 -18.999,12.717 -33.285,12.717c-13.346,0 -24.181,-3.924 -32.345,-11.617c-8.006,-7.851 -12.089,-17.743 -12.089,-29.518c0,-11.933 3.924,-21.823 11.775,-29.83c8.006,-8.008 17.899,-11.933 29.988,-11.933c11.933,0 21.668,3.924 29.361,11.775c7.693,7.693 11.619,17.584 11.619,29.361c0,3.453 -0.471,6.909 -1.257,10.204l-52.125,0l0,-0.001zm25.906,-18.683c-1.727,-6.28 -5.966,-9.42 -12.717,-9.42c-6.753,0 -11.306,3.14 -13.659,9.42l26.376,0z" fill="#515A5A" id="svg_165"/>
       <path d="m1304.176,922.071c6.751,7.851 10.048,17.741 10.048,29.674c0,11.933 -3.298,21.823 -10.048,29.674c-6.751,7.851 -15.386,11.775 -25.906,11.775c-8.951,0 -16.015,-3.14 -21.039,-9.264l0,38.467l-29.047,0l0,-109.903l29.047,0l0,7.064c5.024,-6.122 12.089,-9.262 21.039,-9.262c10.52,0 19.155,3.925 25.906,11.775zm-32.972,44.434c4.24,0 7.537,-1.413 10.048,-4.24c5.182,-5.653 5.182,-15.386 0,-21.039c-2.511,-2.826 -5.809,-4.24 -10.048,-4.24s-7.535,1.413 -10.206,4.24c-5.024,5.653 -5.024,15.386 0,21.039c2.671,2.826 5.967,4.24 10.206,4.24z" fill="#515A5A" id="svg_166"/>
       <path d="m911.797,1169.841c-8.008,-8.006 -11.933,-17.899 -11.933,-29.674c0,-11.775 3.924,-21.668 11.933,-29.517c8.007,-8.008 17.897,-11.933 29.988,-11.933c15.544,0 29.203,8.006 36.112,20.568l-24.492,13.973c-2.671,-4.396 -6.438,-6.595 -11.619,-6.595c-7.38,0 -12.875,5.811 -12.875,13.504s5.495,13.502 12.875,13.502c5.495,0 9.264,-2.198 11.619,-6.751l24.492,14.13c-6.909,12.717 -20.568,20.568 -36.112,20.568c-12.09,0 -21.981,-3.925 -29.988,-11.775z" fill="#515A5A" id="svg_167"/>
       <path d="m1000.039,1169.683c-8.164,-8.006 -12.246,-17.742 -12.246,-29.516c0,-11.775 4.082,-21.51 12.246,-29.517c8.164,-8.008 18.213,-11.933 29.988,-11.933c11.777,0 21.825,3.924 29.99,11.933c8.164,8.007 12.246,17.741 12.246,29.517c0,11.775 -4.082,21.51 -12.246,29.516c-8.164,8.008 -18.213,11.933 -29.99,11.933c-11.776,0 -21.667,-3.925 -29.988,-11.933zm29.987,-15.699c3.926,0 7.066,-1.257 9.422,-3.769c2.511,-2.669 3.767,-5.966 3.767,-10.048c0,-4.082 -1.256,-7.38 -3.767,-9.891c-2.355,-2.671 -5.495,-3.926 -9.422,-3.926c-3.924,0 -7.064,1.256 -9.577,3.926c-2.355,2.511 -3.611,5.809 -3.611,9.891c0,4.082 1.256,7.38 3.611,10.048c2.513,2.511 5.653,3.769 9.577,3.769z" fill="#515A5A" id="svg_168"/>
       <path d="m1142.762,1069.515l29.045,0l0,109.904l-29.045,0l0,-7.066c-5.024,6.124 -12.089,9.264 -21.039,9.264c-10.52,0 -19.155,-3.924 -25.906,-11.775c-6.751,-7.851 -10.048,-17.741 -10.048,-29.674c0,-11.933 3.298,-21.824 10.048,-29.674c6.751,-7.851 15.386,-11.775 25.906,-11.775c8.95,0 16.015,3.14 21.039,9.262l0,-38.466zm-13.973,85.411c4.238,0 7.535,-1.413 10.048,-4.24c5.18,-5.653 5.18,-15.386 0,-21.039c-2.513,-2.827 -5.811,-4.24 -10.048,-4.24c-4.24,0 -7.537,1.413 -10.206,4.24c-5.024,5.653 -5.024,15.386 0,21.039c2.669,2.827 5.966,4.24 10.206,4.24z" fill="#515A5A" id="svg_169"/>
       <path d="m1217.817,1150.057c2.511,5.182 7.849,7.851 16.013,7.851c4.868,0 9.264,-1.727 13.346,-5.024l18.999,16.015c-7.851,8.478 -18.999,12.717 -33.285,12.717c-13.346,0 -24.181,-3.924 -32.345,-11.617c-8.006,-7.851 -12.089,-17.743 -12.089,-29.518c0,-11.933 3.924,-21.823 11.775,-29.83c8.006,-8.008 17.899,-11.933 29.988,-11.933c11.933,0 21.668,3.924 29.361,11.775c7.693,7.693 11.619,17.584 11.619,29.361c0,3.453 -0.471,6.907 -1.257,10.204l-52.125,0l0,-0.001zm25.906,-18.683c-1.727,-6.28 -5.966,-9.42 -12.717,-9.42c-6.753,0 -11.306,3.14 -13.659,9.42l26.376,0z" fill="#515A5A" id="svg_170"/>
       <path d="m1298.681,1181.774c-5.024,0 -9.262,-1.727 -12.873,-5.182c-3.455,-3.611 -5.182,-7.851 -5.182,-12.875s1.727,-9.262 5.182,-12.717c3.611,-3.611 7.849,-5.338 12.873,-5.338c5.024,0 9.264,1.727 12.719,5.338c3.611,3.455 5.338,7.693 5.338,12.717s-1.727,9.264 -5.338,12.875c-3.455,3.455 -7.695,5.182 -12.719,5.182z" fill="#515A5A" id="svg_171"/>
      </g>
      <rect fill="#515A5A" height="894.11" id="svg_172" opacity="0.3" width="44.957" x="1532.132" y="381.278"/>
     </g>
    </g>
    <linearGradient id="SVGID_1_" x1="0.5" x2="0.5" y1="1" y2="0">
     <stop offset="0" stop-color="#FFFFFF"/>
     <stop offset="0.1858" stop-color="#CBCECE"/>
     <stop offset="0.3715" stop-color="#9FA4A4"/>
     <stop offset="0.5495" stop-color="#7D8484"/>
     <stop offset="0.7177" stop-color="#656D6D"/>
     <stop offset="0.8722" stop-color="#565F5F"/>
     <stop offset="1" stop-color="#515A5A"/>
    </linearGradient>
    <polygon fill="url(#SVGID_1_)" id="svg_173" opacity="0.5" points="3422.918,3545 857.912,3545 745.294,2785.837 3310.3,2785.837   "/>
   </g>
  </g>
 </g>
</svg>